<svg viewBox="0 0 378 710" fill="none" xmlns="http://www.w3.org/2000/svg">
<path d="M362.025 697.678C361.3 698.295 360.554 698.881 359.787 699.448C359.52 699.663 359.243 699.859 358.966 700.044C358.145 700.631 357.303 701.189 356.44 701.726C356.387 701.765 356.333 701.804 356.281 701.834C355.747 702.147 355.215 702.46 354.682 702.762C354.085 703.094 353.477 703.417 352.87 703.73C352.251 704.033 351.633 704.337 351.004 704.62C350.695 704.757 350.375 704.903 350.067 705.03C349.746 705.177 349.427 705.313 349.107 705.431C348.137 705.822 347.156 706.174 346.154 706.507C345.493 706.732 344.822 706.937 344.15 707.123C343.808 707.221 343.467 707.319 343.126 707.406C342.092 707.66 341.047 707.905 339.992 708.101C339.651 708.169 339.299 708.237 338.937 708.296C338.575 708.355 338.223 708.414 337.872 708.463C337.158 708.57 336.432 708.668 335.708 708.736C335.197 708.805 334.684 708.834 334.173 708.873C333.747 708.902 333.321 708.922 332.894 708.941C332.096 708.981 331.306 709 330.497 709H47.515C46.694 709 45.8951 708.981 45.0951 708.941C44.6689 708.922 44.2427 708.902 43.8164 708.873C42.985 708.814 42.164 708.746 41.3325 708.658C41.6527 708.688 41.9614 708.707 42.2816 708.736C19.0876 706.341 1 688.242 1 666.339V43.6611C1 20.8883 20.5584 2.22213 45.0951 1.05874H45.1277C45.9161 1.01925 46.7055 1 47.515 1H330.497C331.307 1 332.085 1.01925 332.884 1.05874H332.894C333.321 1.078 333.747 1.09824 334.173 1.12713C334.578 1.15602 335.005 1.1955 335.42 1.2244C358.753 3.49339 377 21.6607 377 43.6611V666.34C377 668.53 376.819 670.681 376.478 672.793C376.383 673.312 376.286 673.839 376.18 674.348C375.636 676.968 374.827 679.501 373.782 681.925C373.58 682.424 373.356 682.923 373.122 683.411C371.651 686.472 369.796 689.356 367.622 692.006C367.409 692.25 367.196 692.514 366.982 692.759C365.478 694.519 363.805 696.153 362.025 697.678Z" fill="white" stroke="#9e9e9e" stroke-width="2"/>
<path d="M332.374 17.7228H332.119L331.735 17.6871C331.284 17.6688 330.871 17.6688 330.488 17.6688H289.658C287.321 17.7767 285.437 19.4341 285.202 21.55C285.192 21.6945 285.182 21.8379 285.182 21.9911V22.045C284.622 33.023 274.745 41.7591 262.65 41.7591H192.946H185.053H115.349C103.254 41.7591 93.378 33.023 92.8174 22.045V21.9911C92.8174 21.8379 92.808 21.6935 92.7975 21.55C92.5623 19.4332 90.6768 17.7767 88.3409 17.6688H47.5098C47.1266 17.6688 46.715 17.6688 46.2625 17.6871L45.8794 17.7228H45.6242C30.7607 18.6146 19.1569 29.9615 19.1569 43.6688V666.34C19.1569 679.813 30.6232 691.205 45.2516 692.259C45.3985 692.268 45.5172 692.277 45.6347 692.286H45.7334L45.8122 692.295H45.9791L46.0379 692.303C46.5292 692.322 47.0195 692.339 47.5108 692.339H185.053H192.946H330.488C330.979 692.339 331.47 692.321 331.961 692.303L332.02 692.295H332.187L332.266 692.286H332.364C332.482 692.277 332.599 692.268 332.747 692.259C347.376 691.205 358.842 679.812 358.842 666.34V43.6698C358.841 29.9624 347.237 18.6146 332.374 17.7228Z" fill="white" stroke="#9e9e9e" stroke-width="2" stroke-miterlimit="10"/>
</svg>
