<svg width="47" height="47" viewBox="0 0 47 47" fill="none" xmlns="http://www.w3.org/2000/svg">
	<g clip-path="url(#clip0_327_9369)">
		<path
			d="M43.5769 23.4149C42.998 22.5202 40.9606 21.8717 40.0291 21.4676C38.335 20.7562 36.5955 20.1702 34.8086 19.7952C31.7887 19.1246 28.7141 19.0071 25.6756 19.1917C19.3825 19.6752 13.5607 22.0739 8.19436 25.1451C10.6678 25.3942 13.183 25.6888 15.6546 26.0234C16.3355 26.1541 16.9775 28.0807 17.4896 28.1145C13.7758 27.9119 10.0239 27.4927 6.31742 26.9481C6.06136 26.9312 4.39328 25.0224 4.48235 24.857C6.23317 20.9903 8.02945 16.9981 11.0439 13.9856C11.0439 13.9856 11.8807 14.8117 11.8788 14.8972C10.5409 17.4638 9.11764 20.0247 7.95043 22.6025C14.4431 18.835 22.0973 16.6858 29.8135 17.581C34.6314 18.1134 41.6481 19.7332 44.4555 24.2865C44.5371 24.4632 43.742 23.6827 43.5769 23.4149Z"
			fill="white" />
	</g>
	<defs>
		<clipPath id="clip0_327_9369">
			<rect width="32.9281" height="32.9281" fill="white"
				transform="matrix(-0.737424 0.675431 0.675431 0.737424 24.2817 0)" />
		</clipPath>
	</defs>
</svg>