<svg width="18" height="18" viewBox="0 0 18 18" fill="none" xmlns="http://www.w3.org/2000/svg">
<g clip-path="url(#clip0_327_9411)">
<path d="M16.7848 1.21508C16.5319 1.12651 16.0865 1.02431 15.4212 0.899971C14.5318 0.735603 14.224 0.741139 14.0694 0.758172C14.0621 0.759214 14.0548 0.760066 14.0475 0.760726C13.872 0.786276 13.5618 0.880808 12.7078 1.40968C12.0821 1.79803 11.159 2.55429 9.88635 3.7202C9.35083 4.21109 8.82536 4.71826 8.31044 5.24123C7.01379 4.21262 5.68244 3.25126 4.31991 2.35969C4.30386 2.35018 4.28765 2.34109 4.27127 2.33244C4.05969 2.23663 2.18464 1.39861 1.38591 1.49059C0.9419 1.54211 0.771662 1.87596 0.760891 2.17148C0.712252 3.42765 0.824818 4.10301 1.13298 4.42919C1.26744 4.57525 1.60583 4.86906 2.93508 5.67302C3.9883 6.3042 5.01719 6.99463 6.01847 7.74209C4.91643 9.03432 3.85877 10.3822 2.84822 11.7823C2.83676 11.7993 2.82564 11.8159 2.81522 11.8342C2.10126 13.1437 1.29454 14.8521 1.50542 15.5615C1.56726 15.768 1.69998 15.9209 1.87022 15.9809C2.49628 16.2015 2.95905 16.2918 3.28528 16.2547C3.47532 16.2321 3.6268 16.1683 3.74909 16.0605C3.8971 15.9324 4.20943 15.5964 5.15408 14.2031C6.16231 12.7008 7.29978 11.2215 8.54113 9.80137C8.97819 10.1855 9.34889 10.5223 9.69075 10.8493C11.8062 12.8681 13.4148 14.7188 14.4689 16.3518C14.752 16.81 14.8531 16.9437 14.9098 17.0076C15.0755 17.1966 15.2443 17.2439 15.3576 17.2494C15.3861 17.2507 15.4128 17.2499 15.4386 17.2465C15.6602 17.2209 15.9249 17.014 15.9423 16.5145C15.9534 16.1989 15.9322 15.6432 15.876 14.8214C15.7985 13.6947 15.72 13.3289 15.6675 13.1505C15.6077 12.9473 15.4594 12.5995 14.841 11.7048C14.3879 11.0524 13.5513 10.1007 12.3524 8.87606C11.8464 8.36048 11.3298 7.86068 10.8032 7.37716L10.8324 7.34906C12.927 5.29531 14.7698 3.80834 16.3078 2.932C16.7365 2.7012 16.8651 2.61306 16.9283 2.56196C17.0815 2.43506 17.1819 2.27197 17.2267 2.08291C17.3039 1.75928 17.1972 1.36241 16.7848 1.21508Z" fill="#FFF8EB"/>
</g>
<defs>
<clipPath id="clip0_327_9411">
<rect width="18" height="18" fill="white"/>
</clipPath>
</defs>
</svg>
