<svg width="29" height="26" viewBox="0 0 29 26" fill="none" xmlns="http://www.w3.org/2000/svg">
	<path
		d="M27.6613 7.09444L24.9027 2.23079C24.6674 1.81802 24.3445 1.47837 23.9633 1.24278C23.5822 1.0072 23.155 0.883177 22.7206 0.882004H6.28408C5.84955 0.882264 5.42202 1.0059 5.04076 1.24156C4.6595 1.47723 4.3367 1.81738 4.10198 2.23079L1.33891 7.09444C1.03017 7.6384 0.889284 8.28255 0.938221 8.92649C0.987157 9.57043 1.22316 10.178 1.60944 10.6544L12.5864 24.1924C12.8298 24.4919 13.1256 24.7311 13.455 24.8946C13.7845 25.0582 14.1403 25.1426 14.5001 25.1426C14.8599 25.1426 15.2158 25.0582 15.5452 24.8946C15.8747 24.7311 16.1704 24.4919 16.4139 24.1924L27.3908 10.6544C27.7771 10.178 28.0131 9.57043 28.0621 8.92649C28.111 8.28255 27.9701 7.6384 27.6613 7.09444Z"
		fill="#FFB62F" />
	<path
		d="M4.10208 2.20576L1.33901 7.09448C1.02059 7.657 0.882798 8.32612 0.948713 8.98979H28.0562C28.1204 8.32556 27.9811 7.65653 27.6614 7.09448L24.9028 2.23083C24.6675 1.81805 24.3446 1.4784 23.9634 1.24282C23.5823 1.00724 23.1551 0.883214 22.7207 0.882041H6.28418C5.85169 0.879591 5.42553 0.999404 5.04443 1.23059C4.66334 1.46177 4.33939 1.79699 4.10208 2.20576Z"
		fill="url(#paint0_linear_513_2012)" />
	<path d="M19.5539 8.9649H9.45068L11.0828 0.857147H17.9218L19.5539 8.9649Z" fill="#FF8E3A" />
	<path d="M9.45068 8.96489L14.0854 25.1002C14.3616 25.1503 14.643 25.1503 14.9192 25.1002L19.5539 8.96489H9.45068Z"
		fill="#FF8022" />
	<g style="mix-blend-mode:overlay">
		<path
			d="M19.5541 16.12C16.0694 16.1201 12.6585 14.9852 9.72941 12.8511C6.80032 10.717 4.4771 7.67401 3.03772 4.08623L1.33906 7.09467C1.26063 7.23528 1.19239 7.38284 1.13504 7.53591C1.13504 7.57101 1.13505 7.61112 1.09957 7.65123C1.06038 7.76743 1.02778 7.88634 1.00199 8.00723C0.99988 8.04396 0.99988 8.08081 1.00199 8.11754C0.979228 8.24002 0.962943 8.36392 0.953207 8.48858C0.953207 8.52869 0.953207 8.56379 0.953207 8.60391C0.946587 8.72747 0.946587 8.85138 0.953207 8.97495C1.01381 9.5924 1.24683 10.172 1.61848 10.6296L12.5954 24.1676C12.9904 24.6497 13.5164 24.969 14.09 25.0751C14.2195 25.0943 14.3498 25.106 14.4803 25.1102H14.5291C14.6611 25.106 14.7929 25.0943 14.9238 25.0751C15.4978 24.9701 16.0241 24.6506 16.4185 24.1676L23.3151 15.6437C22.0796 15.9507 20.8191 16.1104 19.5541 16.12Z"
			fill="url(#paint1_linear_513_2012)" />
	</g>
	<defs>
		<linearGradient id="paint0_linear_513_2012" x1="8.9141" y1="7.87661" x2="8.07495" y2="0.844353"
			gradientUnits="userSpaceOnUse">
			<stop stop-color="#FFCA38" />
			<stop offset="0.549111" stop-color="#FF9C38" />
			<stop offset="1" stop-color="#FF8D38" />
		</linearGradient>
		<linearGradient id="paint1_linear_513_2012" x1="18.6019" y1="1.58119" x2="-2.10772" y2="24.9022"
			gradientUnits="userSpaceOnUse">
			<stop stop-color="#FD940E" />
			<stop offset="1" stop-color="#DB3801" />
		</linearGradient>
	</defs>
</svg>