<svg width="24" height="34" viewBox="0 0 24 34" fill="none" xmlns="http://www.w3.org/2000/svg">
<path d="M8 4.625C8 2.34683 6.20914 0.5 4 0.5C1.79086 0.5 0 2.34683 0 4.625V29.375C0 31.6532 1.79086 33.5 4 33.5C6.20914 33.5 8 31.6532 8 29.375V4.625Z" fill="white"/>
<path d="M8 4.625C8 2.34683 6.20914 0.5 4 0.5C1.79086 0.5 0 2.34683 0 4.625V29.375C0 31.6532 1.79086 33.5 4 33.5C6.20914 33.5 8 31.6532 8 29.375V4.625Z" fill="url(#paint0_linear_438_2124)"/>
<path d="M24 4.625C24 2.34683 22.2091 0.5 20 0.5C17.7909 0.5 16 2.34683 16 4.625V29.375C16 31.6532 17.7909 33.5 20 33.5C22.2091 33.5 24 31.6532 24 29.375V4.625Z" fill="white"/>
<path d="M24 4.625C24 2.34683 22.2091 0.5 20 0.5C17.7909 0.5 16 2.34683 16 4.625V29.375C16 31.6532 17.7909 33.5 20 33.5C22.2091 33.5 24 31.6532 24 29.375V4.625Z" fill="url(#paint1_linear_438_2124)"/>
<defs>
<linearGradient id="paint0_linear_438_2124" x1="0.633962" y1="-49.3113" x2="14.1706" y2="-48.7294" gradientUnits="userSpaceOnUse">
<stop stop-color="#4B5ADD"/>
<stop offset="1" stop-color="#AC51A8"/>
</linearGradient>
<linearGradient id="paint1_linear_438_2124" x1="16.634" y1="-49.3113" x2="30.1706" y2="-48.7294" gradientUnits="userSpaceOnUse">
<stop stop-color="#4B5ADD"/>
<stop offset="1" stop-color="#AC51A8"/>
</linearGradient>
</defs>
</svg>
