<svg width="10" height="20" viewBox="0 0 10 20" fill="none" xmlns="http://www.w3.org/2000/svg">
<path d="M4.56797 0.833344C4.17993 0.88002 3.72783 0.904101 3.28725 0.993291C2.25491 1.2017 1.33216 1.66578 0.572942 2.4462C0.224861 2.80186 0.0200938 3.28605 0.00140181 3.79766C-0.0172902 4.30926 0.151537 4.80873 0.47263 5.19177C1.01071 5.83869 1.80955 5.83661 2.66037 5.18582C2.71882 5.14093 2.77839 5.09752 2.83599 5.05144C3.47101 4.54187 4.19876 4.34238 4.97652 4.42443C5.61801 4.49222 6.16761 4.78357 6.3969 5.48461C6.61831 6.16126 6.30867 6.67202 5.85853 7.1043C5.63262 7.32133 5.37243 7.49911 5.12629 7.69266C3.64775 8.85421 3.0057 10.6811 3.46033 12.434C3.67669 13.2679 4.04422 13.7056 4.52751 13.705C5.00013 13.7044 5.36035 13.3122 5.57081 12.4828C5.78941 11.6218 6.2078 10.9008 6.85097 10.3398C7.36545 9.89119 7.92826 9.50529 8.44668 9.06172C10.0674 7.67482 10.4613 5.5292 9.43209 3.61905C8.37502 1.65776 6.6554 0.955237 4.56797 0.833344ZM4.8394 15.0886C3.64522 15.0907 2.88713 15.8669 2.88965 17.0853C2.89218 18.2896 3.70367 19.1708 4.80653 19.1667C5.9639 19.1625 6.79533 18.2917 6.78971 17.09C6.78437 15.8669 6.02375 15.0865 4.8394 15.0886Z" fill="#4A4545"/>
</svg>
