<svg width="32" height="32" viewBox="0 0 32 32" fill="none" xmlns="http://www.w3.org/2000/svg">
	<path
		d="M28.4472 21.3009C27.3739 25.7384 23.4606 29.2914 18.474 30.3475C17.5021 30.5604 16.5106 30.6674 15.5163 30.6667C11.0163 30.6667 6.71273 28.4955 3.55157 24.5457L2.34398 25.212C2.22498 25.2788 2.08903 25.3078 1.95365 25.2954C1.81827 25.2829 1.68967 25.2295 1.58442 25.1421C1.4807 25.0547 1.40428 24.9385 1.36447 24.8077C1.32466 24.6769 1.32319 24.5371 1.36025 24.4055L3.29993 17.7127C3.3544 17.5371 3.47117 17.3883 3.62753 17.2953C3.7878 17.2133 3.97225 17.1945 4.14533 17.2426L10.7366 19.2138C10.9956 19.2945 11.1957 19.5261 11.2198 19.8032C11.2476 20.0873 11.113 20.3575 10.8678 20.4906L9.21467 21.4064C11.0991 24.5527 14.3498 26.4119 18.025 26.4119C19.9783 26.4119 21.8074 25.8928 23.3775 24.928C24.9547 23.967 26.266 22.5742 27.1772 20.8166C27.2542 20.6664 27.383 20.5501 27.5388 20.49C27.6947 20.43 27.8669 20.4303 28.0226 20.4909C28.3505 20.617 28.5299 20.9607 28.4472 21.3009ZM30.6388 7.58903L28.6957 14.2821C28.6093 14.5871 28.3437 14.7802 28.0399 14.7802C27.9812 14.7802 27.9124 14.766 27.85 14.7557L21.2655 12.7807C21.1364 12.7414 21.0213 12.6648 20.9343 12.5602C20.8473 12.4556 20.7921 12.3275 20.7755 12.1916C20.7609 12.054 20.7869 11.9152 20.8502 11.7927C20.9135 11.6703 21.0112 11.5697 21.1309 11.5039L22.7841 10.5884C20.8963 7.44561 17.6524 5.58262 13.9737 5.58262C12.017 5.58262 10.1882 6.10549 8.61782 7.07025C7.04064 8.02748 5.72931 9.42408 4.81813 11.1775C4.74121 11.3279 4.61254 11.4443 4.45664 11.5045C4.30073 11.5647 4.12849 11.5645 3.97273 11.5039C3.8172 11.4443 3.68834 11.3292 3.61021 11.1801C3.53208 11.031 3.51003 10.858 3.54818 10.6936C4.62855 6.25645 8.53477 2.7031 13.5214 1.64701C19.0471 0.471978 24.5928 2.6397 28.4509 7.45251L29.6551 6.78591C29.7729 6.71767 29.9083 6.68752 30.0434 6.69946C30.1785 6.7114 30.3068 6.76487 30.4112 6.85275C30.6249 7.02788 30.7182 7.31881 30.6388 7.58903Z"
		fill="white" />
</svg>