<svg width="68" height="50" viewBox="0 0 68 50" fill="none" xmlns="http://www.w3.org/2000/svg">
<path opacity="0.5" d="M11.118 3.04482C11.1063 4.20075 9.52777 4.7461 9.3593 4.80355C8.3173 5.16387 6.83416 5.02364 6.51962 4.31664C6.08918 3.35352 7.72132 1.07379 9.3593 1.28414C10.1861 1.39223 11.1307 2.14597 11.118 3.04482Z" fill="#C76144"/>
<path opacity="0.5" d="M66.8068 4.31436C67.3932 3.53996 67.0074 2.26028 65.9453 1.45613C64.8832 0.651975 63.5469 0.627857 62.9605 1.40226C62.3742 2.17667 62.7599 3.45634 63.8221 4.26049C64.8842 5.06465 66.2205 5.08876 66.8068 4.31436Z" fill="#C76144"/>
<path d="M65.6362 47.2659C66.8859 46.2858 67.345 44.7188 66.6616 43.7659C65.9783 42.8131 64.4113 42.8352 63.1616 43.8154C61.912 44.7955 61.4529 46.3625 62.1362 47.3154C62.8196 48.2682 64.3866 48.2461 65.6362 47.2659Z" fill="#C76144"/>
<path d="M2.59617 45.9203C4.02996 46.6034 5.63757 46.3173 6.18687 45.2814C6.73617 44.2455 6.01916 42.852 4.58537 42.1689C3.15158 41.4859 1.54396 41.7719 0.994658 42.8078C0.445356 43.8438 1.16238 45.2373 2.59617 45.9203Z" fill="#C76144"/>
<path d="M8.75115 44.5755C8.86993 44.3375 9.05663 44.1401 9.28762 44.0082C9.51862 43.8763 9.78354 43.8159 10.0489 43.8345C10.3142 43.8532 10.5681 43.9501 10.7783 44.1131C10.9886 44.276 11.1458 44.4977 11.2301 44.75C11.3143 45.0023 11.3219 45.2739 11.2518 45.5305C11.1817 45.7871 11.0371 46.0172 10.8362 46.1916C10.6354 46.3659 10.3873 46.4769 10.1234 46.5103C9.8595 46.5437 9.59162 46.4981 9.35364 46.3792C9.0346 46.2199 8.7919 45.9404 8.67892 45.6021C8.56593 45.2639 8.59192 44.8946 8.75115 44.5755Z" fill="#C76144"/>
<path opacity="0.5" d="M5.26768 7.35787C5.92007 7.35787 6.44893 6.829 6.44893 6.17661C6.44893 5.52423 5.92007 4.99536 5.26768 4.99536C4.61529 4.99536 4.08643 5.52423 4.08643 6.17661C4.08643 6.829 4.61529 7.35787 5.26768 7.35787Z" fill="#C76144"/>
</svg>
