<svg width="22" height="22" viewBox="0 0 22 22" fill="none" xmlns="http://www.w3.org/2000/svg">
<g clip-path="url(#clip0_362_1746)">
<path d="M14.1492 0.357178L7.8505 0.357178C3.71192 0.357178 0.356934 3.71216 0.356934 7.85075L0.356934 14.1495C0.356934 18.2881 3.71192 21.643 7.8505 21.643L14.1492 21.643C18.2878 21.643 21.6428 18.2881 21.6428 14.1495L21.6428 7.85075C21.6428 3.71216 18.2878 0.357178 14.1492 0.357178Z" fill="url(#paint0_radial_362_1746)"/>
<path d="M14.1494 0.357073C16.1365 0.357428 18.0422 1.14708 19.4473 2.55236C20.8523 3.95764 21.6416 5.86345 21.6416 7.85064L21.6416 14.1494C21.6417 16.1366 20.8524 18.0425 19.4474 19.4478C18.0423 20.8531 16.1366 21.6427 14.1494 21.6429L7.84975 21.6429C5.86249 21.6427 3.9567 20.8531 2.55157 19.4478C1.14645 18.0425 0.357074 16.1366 0.357074 14.1494L0.357074 7.85064C0.357074 5.86338 1.14645 3.95749 2.55157 2.5522C3.9567 1.14691 5.86249 0.35731 7.84975 0.357073L14.1494 0.357073ZM14.1494 2.49193e-06L7.84975 2.49193e-06C6.8186 -0.000819429 5.79741 0.201689 4.8446 0.595941C3.8918 0.990192 3.02608 1.56845 2.29699 2.29762C1.5679 3.0268 0.989742 3.89258 0.595599 4.84543C0.201456 5.79828 -0.000935923 6.81949 3.25365e-06 7.85064L3.25365e-06 14.1494C-0.000935923 15.1805 0.201456 16.2017 0.595599 17.1546C0.989742 18.1074 1.5679 18.9732 2.29699 19.7024C3.02608 20.4316 3.8918 21.0098 4.8446 21.4041C5.79741 21.7983 6.8186 22.0008 7.84975 22L14.1494 22C15.1805 22.0008 16.2016 21.7982 17.1544 21.4039C18.1071 21.0097 18.9728 20.4314 19.7018 19.7022C20.4309 18.9731 21.009 18.1073 21.4031 17.1545C21.7972 16.2017 21.9996 15.1805 21.9987 14.1494L21.9987 7.85064C21.9996 6.81953 21.7972 5.79835 21.4031 4.84553C21.009 3.89271 20.4309 3.02695 19.7018 2.29778C18.9728 1.56861 18.1071 0.990346 17.1544 0.596069C16.2016 0.201791 15.1805 -0.000760723 14.1494 2.49193e-06Z" fill="#503124"/>
<path opacity="0.3" d="M14.2508 1.53361C15.0941 1.53367 15.9291 1.69984 16.7082 2.02263C17.4873 2.34542 18.1952 2.81851 18.7915 3.41489C19.3877 4.01127 19.8607 4.71925 20.1833 5.49841C20.5059 6.27757 20.6719 7.11266 20.6718 7.95597L20.6718 14.2547C20.6719 15.098 20.5059 15.9331 20.1833 16.7123C19.8607 17.4914 19.3877 18.1994 18.7915 18.7958C18.1952 19.3922 17.4873 19.8652 16.7082 20.188C15.9291 20.5108 15.0941 20.677 14.2508 20.677L7.95117 20.677C7.10782 20.677 6.27272 20.5109 5.49358 20.1882C4.71443 19.8654 4.00649 19.3923 3.4102 18.7959C2.8139 18.1995 2.34091 17.4915 2.01826 16.7124C1.6956 15.9332 1.52959 15.098 1.52971 14.2547L1.52971 7.95597C1.52959 7.11262 1.6956 6.2775 2.01826 5.49831C2.34091 4.71912 2.8139 4.01112 3.4102 3.41473C4.00649 2.81835 4.71443 2.34527 5.49358 2.0225C6.27272 1.69974 7.10782 1.53361 7.95117 1.53361L14.2508 1.53361ZM14.2508 0.462402L7.95117 0.462402C5.96391 0.462639 4.05812 1.25224 2.653 2.65753C1.24787 4.06282 0.458496 5.96871 0.458496 7.95597L0.458496 14.2547C0.458496 16.242 1.24787 18.1478 2.653 19.5531C4.05812 20.9584 5.96391 21.748 7.95117 21.7483L14.2508 21.7483C16.238 21.748 18.1438 20.9584 19.5488 19.5531C20.9539 18.1478 21.7431 16.2419 21.743 14.2547L21.743 7.95597C21.743 5.96879 20.9537 4.06297 19.5487 2.65769C18.1436 1.25241 16.238 0.462757 14.2508 0.462402Z" fill="#DC7E57"/>
<path opacity="0.5" d="M6.0586 3.229C6.05324 3.7588 5.32973 4.00875 5.25251 4.03508C4.77493 4.20023 4.09515 4.13596 3.95099 3.81191C3.75371 3.37049 4.50177 2.32561 5.25251 2.42202C5.63145 2.47156 6.0644 2.81703 6.0586 3.229Z" fill="#C76144"/>
<path opacity="0.5" d="M18.1855 4.25699C18.4542 3.90205 18.2774 3.31553 17.7906 2.94696C17.3038 2.57839 16.6913 2.56734 16.4226 2.92227C16.1539 3.27721 16.3307 3.86373 16.8175 4.2323C17.3043 4.60087 17.9168 4.61192 18.1855 4.25699Z" fill="#C76144"/>
<g opacity="0.5">
<path d="M17.467 19.4098C17.9555 19.0435 18.1349 18.4578 17.8678 18.1016C17.6007 17.7455 16.9882 17.7537 16.4997 18.1201C16.0112 18.4865 15.8318 19.0722 16.0989 19.4283C16.366 19.7845 16.9785 19.7762 17.467 19.4098Z" fill="#C76144"/>
</g>
<g opacity="0.5">
<path d="M18.2256 17.5094C18.1521 17.4121 18.1091 17.2952 18.1021 17.1735C18.0951 17.0517 18.1243 16.9307 18.1861 16.8256C18.2478 16.7204 18.3394 16.636 18.4492 16.5829C18.5589 16.5299 18.6819 16.5105 18.8027 16.5274C18.9234 16.5443 19.0365 16.5965 19.1275 16.6777C19.2185 16.7588 19.2835 16.865 19.3141 16.983C19.3447 17.101 19.3397 17.2255 19.2996 17.3406C19.2595 17.4558 19.1861 17.5564 19.0888 17.6299C18.9583 17.7283 18.7941 17.7709 18.6322 17.7484C18.4704 17.7258 18.3241 17.6398 18.2256 17.5094Z" fill="#C76144"/>
</g>
<path d="M14.1492 0.357178L7.84961 0.357178C5.86235 0.357414 3.95656 1.14702 2.55143 2.55231C1.14631 3.9576 0.356934 5.86348 0.356934 7.85075L0.356934 8.2654C0.356934 6.27813 1.14631 4.37225 2.55143 2.96696C3.95656 1.56167 5.86235 0.772063 7.84961 0.771826L14.1492 0.771826C16.1364 0.772181 18.0421 1.56184 19.4471 2.96711C20.8521 4.37239 21.6415 6.27821 21.6415 8.2654V7.85075C21.6415 5.86356 20.8521 3.95775 19.4471 2.55247C18.0421 1.14719 16.1364 0.357533 14.1492 0.357178Z" fill="#7D312C"/>
<path d="M14.1492 21.6714L7.84961 21.6714C5.86235 21.6711 3.95656 20.8815 2.55143 19.4763C1.14631 18.071 0.356934 16.1651 0.356934 14.1778L0.356934 13.7632C0.356934 15.7504 1.14631 17.6563 2.55143 19.0616C3.95656 20.4669 5.86235 21.2565 7.84961 21.2567L14.1492 21.2567C16.1364 21.2564 18.0421 20.4667 19.4471 19.0614C20.8521 17.6562 21.6415 15.7504 21.6415 13.7632V14.1778C21.6415 16.165 20.8521 18.0708 19.4471 19.4761C18.0421 20.8814 16.1364 21.671 14.1492 21.6714Z" fill="#7D312C"/>
<path opacity="0.5" d="M3.37735 5.20562C3.67636 5.20562 3.91875 4.96322 3.91875 4.66421C3.91875 4.3652 3.67636 4.1228 3.37735 4.1228C3.07833 4.1228 2.83594 4.3652 2.83594 4.66421C2.83594 4.96322 3.07833 5.20562 3.37735 5.20562Z" fill="#C76144"/>
<path d="M8.25033 21.2649L7.33366 21.2649L7.56283 20.3403L8.47949 18.9535L8.25033 21.2649Z" fill="#7D312C"/>
<path d="M10.5417 0.73584L11.4583 0.73584L11.2292 1.60426L9.625 4.35428L10.5417 0.73584Z" fill="#7D312C"/>
<g clip-path="url(#clip1_362_1746)">
<path d="M9.80392 12.8055C9.82996 12.7596 9.85169 12.7213 9.87054 12.6917L14.5547 6.59036C14.6834 6.46448 14.8637 6.28825 15.0532 6.17202C15.2583 6.04623 15.4269 6.01769 15.5538 6.12328C15.7268 6.26725 15.8569 6.47777 15.9124 6.69635C15.968 6.91499 15.9467 7.13116 15.8336 7.29651C15.6057 7.62949 15.3117 7.9561 15.0076 8.28372C14.9668 8.32769 14.9258 8.3717 14.8848 8.41574C14.6221 8.69775 14.3581 8.98104 14.1367 9.26463L14.2155 9.32618L14.1367 9.26463C13.1115 10.5776 12.1415 11.9921 11.2114 13.3989C10.8926 13.8809 10.4474 14.6847 10.172 15.203L10.172 15.203C10.0446 15.4426 9.92502 15.6261 9.80427 15.7509C9.68458 15.8746 9.57041 15.934 9.45191 15.9409C9.33159 15.9479 9.18701 15.9021 9.00504 15.7733C8.83204 15.6509 8.63309 15.459 8.39966 15.1856L8.36375 15.1429C7.87174 14.5579 7.47403 13.9852 7.0873 13.427L7.08718 13.4268C6.73761 12.9245 6.43446 12.3876 6.18194 11.8237L6.18195 11.8237L6.18147 11.8226C6.10336 11.6535 6.05407 11.4972 6.05881 11.3626C6.06325 11.2364 6.11505 11.1226 6.26062 11.0277C6.50243 10.8704 6.68636 10.7967 6.83217 10.7777C6.97347 10.7592 7.08436 10.7913 7.18637 10.8599C7.29247 10.9312 7.39093 11.0433 7.49996 11.1897C7.54886 11.2554 7.59852 11.3261 7.65145 11.4014C7.65708 11.4094 7.66275 11.4175 7.66846 11.4256C7.72751 11.5096 7.79039 11.5985 7.85877 11.6893L7.85879 11.6893C8.17606 12.1099 8.64554 12.8054 8.94082 13.247L8.94084 13.247C8.9821 13.3086 9.02978 13.3568 9.08578 13.386C9.14375 13.4162 9.20446 13.4228 9.26308 13.4106C9.37218 13.388 9.46454 13.3023 9.53599 13.2174C9.6107 13.1287 9.67873 13.0208 9.73525 12.9249C9.76115 12.8809 9.78382 12.8409 9.80392 12.8055ZM12.1439 9.38053C12.6387 8.72853 14.2394 6.8981 14.534 6.61056L9.87064 12.6916C10.3576 11.9306 11.6225 10.0671 12.1439 9.38056L12.1439 9.38053Z" fill="#875248" stroke="#503124" stroke-width="0.2"/>
</g>
</g>
<defs>
<radialGradient id="paint0_radial_362_1746" cx="0" cy="0" r="1" gradientUnits="userSpaceOnUse" gradientTransform="translate(10.9999 11.0001) scale(17.875 17.875)">
<stop stop-color="#F3C7AB"/>
<stop offset="0.26" stop-color="#FBBB94"/>
<stop offset="0.55" stop-color="#D68A5D"/>
<stop offset="0.845" stop-color="#DB946A"/>
<stop offset="1" stop-color="#DC8E66"/>
</radialGradient>
<clipPath id="clip0_362_1746">
<rect width="22" height="22" fill="white"/>
</clipPath>
<clipPath id="clip1_362_1746">
<rect width="11" height="11" fill="white" transform="translate(5.5 5.5)"/>
</clipPath>
</defs>
</svg>
