<svg width="48" height="48" viewBox="0 0 48 48" fill="none" xmlns="http://www.w3.org/2000/svg">
<g clip-path="url(#clip0_305_15381)">
<path d="M30.8716 0.779053H17.1289C8.09927 0.779053 0.779297 8.09902 0.779297 17.1287V30.8713C0.779297 39.901 8.09927 47.2209 17.1289 47.2209H30.8716C39.9012 47.2209 47.2212 39.901 47.2212 30.8713V17.1287C47.2212 8.09902 39.9012 0.779053 30.8716 0.779053Z" fill="url(#paint0_radial_305_15381)"/>
<path d="M30.8713 0.779068C35.207 0.779843 39.3649 2.50273 42.4304 5.56879C45.4959 8.63485 47.218 12.793 47.218 17.1287V30.8713C47.2183 35.2071 45.4962 39.3654 42.4307 42.4315C39.3651 45.4976 35.2071 47.2204 30.8713 47.2209H17.1267C12.7909 47.2204 8.63279 45.4977 5.56707 42.4316C2.50134 39.3655 0.77907 35.2072 0.77907 30.8713V17.1287C0.77907 12.7928 2.50134 8.63453 5.56707 5.56844C8.63279 2.50236 12.7909 0.779585 17.1267 0.779068H30.8713ZM30.8713 5.43693e-06H17.1267C14.8769 -0.00178784 12.6489 0.440049 10.57 1.30023C8.4912 2.16042 6.60236 3.42207 5.01162 5.01299C3.42087 6.60392 2.15944 8.4929 1.29949 10.5718C0.439541 12.6508 -0.00204201 14.8789 7.09886e-06 17.1287V30.8713C-0.00204201 33.1211 0.439541 35.3492 1.29949 37.4282C2.15944 39.5071 3.42087 41.3961 5.01162 42.987C6.60236 44.5779 8.4912 45.8396 10.57 46.6998C12.6489 47.56 14.8769 48.0018 17.1267 48H30.8713C33.121 48.0017 35.349 47.5597 37.4277 46.6995C39.5065 45.8393 41.3952 44.5776 42.9858 42.9867C44.5765 41.3958 45.8378 39.5068 46.6977 37.4279C47.5576 35.3491 47.9991 33.121 47.9971 30.8713V17.1287C47.9991 14.879 47.5576 12.6509 46.6977 10.5721C45.8378 8.49319 44.5765 6.60425 42.9858 5.01334C41.3952 3.42243 39.5065 2.16076 37.4277 1.30051C35.349 0.440271 33.121 -0.00165976 30.8713 5.43693e-06Z" fill="#503124"/>
<path opacity="0.3" d="M31.0923 3.34586C32.9322 3.34598 34.7542 3.70853 36.454 4.4128C38.1538 5.11707 39.6983 6.14927 40.9992 7.45046C42.3001 8.75165 43.332 10.2963 44.0359 11.9963C44.7398 13.6963 45.102 15.5183 45.1018 17.3583V31.1009C45.102 32.9409 44.7398 34.7629 44.0359 36.4629C43.332 38.1629 42.3001 39.7076 40.9992 41.0088C39.6983 42.3099 38.1538 43.3421 36.454 44.0464C34.7542 44.7507 32.9322 45.1132 31.0923 45.1133H17.3477C15.5076 45.1133 13.6856 44.7509 11.9856 44.0467C10.2857 43.3425 8.74109 42.3103 7.44007 41.0091C6.13905 39.7079 5.10709 38.1632 4.40311 36.4631C3.69914 34.7631 3.33693 32.941 3.33719 31.1009V17.3583C3.33693 15.5182 3.69914 13.6962 4.40311 11.9961C5.10709 10.296 6.13905 8.75131 7.44007 7.45011C8.74109 6.14892 10.2857 5.11674 11.9856 4.41252C13.6856 3.70831 15.5076 3.34586 17.3477 3.34586H31.0923ZM31.0923 1.00867H17.3477C13.0118 1.00918 8.85372 2.73195 5.788 5.79804C2.72228 8.86413 1 13.0224 1 17.3583V31.1009C1 35.4368 2.72228 39.5951 5.788 42.6612C8.85372 45.7272 13.0118 47.45 17.3477 47.4505H31.0923C35.428 47.45 39.586 45.7272 42.6516 42.6611C45.7172 39.595 47.4392 35.4367 47.439 31.1009V17.3583C47.439 13.0226 45.7168 8.86445 42.6513 5.79839C39.5858 2.73233 35.4279 1.00944 31.0923 1.00867Z" fill="#DC7E57"/>
<path opacity="0.5" d="M13.2191 7.04482C13.2074 8.20075 11.6288 8.7461 11.4604 8.80355C10.4184 9.16387 8.93524 9.02364 8.62069 8.31664C8.19026 7.35352 9.8224 5.07379 11.4604 5.28414C12.2872 5.39223 13.2318 6.14597 13.2191 7.04482Z" fill="#C76144"/>
<path opacity="0.5" d="M39.6774 9.28787C40.2638 8.51347 39.878 7.23379 38.8159 6.42964C37.7538 5.62549 36.4175 5.60137 35.8311 6.37577C35.2448 7.15018 35.6306 8.42985 36.6927 9.234C37.7548 10.0382 39.0911 10.0623 39.6774 9.28787Z" fill="#C76144"/>
<g opacity="0.5">
<path d="M38.11 42.349C39.1758 41.5496 39.5673 40.2717 38.9845 39.4947C38.4017 38.7176 37.0653 38.7357 35.9996 39.535C34.9338 40.3343 34.5423 41.6122 35.1251 42.3893C35.7079 43.1663 37.0443 43.1483 38.11 42.349Z" fill="#C76144"/>
</g>
<g opacity="0.5">
<path d="M39.7643 38.2023C39.604 37.9901 39.5103 37.735 39.4949 37.4695C39.4796 37.2039 39.5433 36.9398 39.6781 36.7104C39.8129 36.4811 40.0126 36.2969 40.2521 36.1811C40.4916 36.0653 40.76 36.0231 41.0235 36.0599C41.2869 36.0967 41.5336 36.2108 41.7322 36.3877C41.9308 36.5647 42.0725 36.7966 42.1393 37.054C42.2061 37.3115 42.1951 37.583 42.1076 37.8342C42.0201 38.0854 41.86 38.305 41.6477 38.4653C41.3631 38.6801 41.0048 38.7731 40.6516 38.7238C40.2984 38.6745 39.9793 38.4869 39.7643 38.2023Z" fill="#C76144"/>
</g>
<path d="M30.8716 0.779053H17.127C12.7911 0.779569 8.63302 2.50234 5.5673 5.56843C2.50157 8.63452 0.779297 12.7928 0.779297 17.1287V18.0333C0.779297 13.6975 2.50157 9.5392 5.5673 6.47312C8.63302 3.40703 12.7911 1.68426 17.127 1.68374H30.8716C35.2072 1.68451 39.3651 3.4074 42.4306 6.47346C45.4961 9.53952 47.2183 13.6977 47.2183 18.0333V17.1287C47.2183 12.793 45.4961 8.63484 42.4306 5.56877C39.3651 2.50271 35.2072 0.779827 30.8716 0.779053Z" fill="#7D312C"/>
<path d="M30.8716 47.283H17.127C12.7911 47.2824 8.63302 45.5597 5.5673 42.4936C2.50157 39.4275 0.779297 35.2692 0.779297 30.9334V30.0287C0.779297 34.3645 2.50157 38.5228 5.5673 41.5889C8.63302 44.655 12.7911 46.3778 17.127 46.3783H30.8716C35.2072 46.3775 39.3651 44.6546 42.4306 41.5886C45.4961 38.5225 47.2183 34.3643 47.2183 30.0287V30.9334C47.2183 35.269 45.4961 39.4272 42.4306 42.4932C39.3651 45.5593 35.2072 47.2822 30.8716 47.283Z" fill="#7D312C"/>
<path opacity="0.5" d="M7.36875 11.3579C8.02114 11.3579 8.55001 10.829 8.55001 10.1766C8.55001 9.52423 8.02114 8.99536 7.36875 8.99536C6.71637 8.99536 6.1875 9.52423 6.1875 10.1766C6.1875 10.829 6.71637 11.3579 7.36875 11.3579Z" fill="#C76144"/>
<path d="M18 46.396L16 46.396L16.5 44.3788L18.5 41.3529L18 46.396Z" fill="#7D312C"/>
<path d="M23 1.60522H25L24.5 3.49996L21 9.5L23 1.60522Z" fill="#7D312C"/>
<path d="M25.1002 34.9H25.1H17.4C16.8352 34.9002 16.276 34.789 15.7542 34.573C15.2325 34.357 14.7584 34.0402 14.3591 33.6409C13.9598 33.2416 13.643 32.7675 13.427 32.2457C13.211 31.724 13.0998 31.1648 13.1 30.6V21.8C13.1013 20.7529 13.484 19.7421 14.1764 18.9566C14.8438 18.1996 15.755 17.7018 16.75 17.5481V26.2C16.75 29.5882 19.5117 32.35 22.9 32.35H29.0195C28.695 33.0856 28.1692 33.7159 27.5013 34.1671C26.7923 34.6462 25.9558 34.9015 25.1002 34.9ZM30.425 13.6216C30.461 13.6515 30.4952 13.6835 30.5274 13.7175L30.5273 13.7176L30.5293 13.7195L34.2803 17.4707L34.2812 17.4716C34.3152 17.5047 34.3478 17.5392 34.3788 17.575H32.2503C31.7669 17.5726 31.304 17.3796 30.9622 17.0378C30.6205 16.696 30.4274 16.2332 30.425 15.7499C30.425 15.7498 30.425 15.7496 30.425 15.7495L30.425 13.6216ZM32.2498 19.425H32.25H34.9V26.2C34.9002 26.7648 34.789 27.324 34.573 27.8457C34.357 28.3675 34.0402 28.8416 33.6409 29.2409C33.2416 29.6402 32.7675 29.957 32.2457 30.173C31.724 30.389 31.1648 30.5002 30.6 30.5H22.9C22.3353 30.5002 21.776 30.389 21.2543 30.173C20.7325 29.957 20.2584 29.6402 19.8591 29.2409C19.4598 28.8416 19.143 28.3675 18.927 27.8458C18.711 27.324 18.5998 26.7648 18.6 26.2V26.2V17.4V17.4C18.5998 16.8352 18.7109 16.276 18.927 15.7542C19.143 15.2325 19.4598 14.7584 19.8591 14.3591C20.2584 13.9598 20.7325 13.643 21.2543 13.427C21.776 13.211 22.3353 13.0998 22.9 13.1H22.9H28.575V15.75L28.575 15.7502C28.5769 16.7242 28.9647 17.6578 29.6534 18.3466C30.3422 19.0353 31.2758 19.4231 32.2498 19.425Z" fill="#875248" stroke="black" stroke-width="0.2"/>
</g>
<defs>
<radialGradient id="paint0_radial_305_15381" cx="0" cy="0" r="1" gradientUnits="userSpaceOnUse" gradientTransform="translate(24.0002 24) scale(39 39)">
<stop stop-color="#F3C7AB"/>
<stop offset="0.26" stop-color="#FBBB94"/>
<stop offset="0.55" stop-color="#D68A5D"/>
<stop offset="0.845" stop-color="#DB946A"/>
<stop offset="1" stop-color="#DC8E66"/>
</radialGradient>
<clipPath id="clip0_305_15381">
<rect width="48" height="48" fill="white"/>
</clipPath>
</defs>
</svg>
