<svg width="347" height="62" viewBox="0 0 347 62" fill="none" xmlns="http://www.w3.org/2000/svg">
<path d="M314 0H317L314.375 4.15999L310 11L314 0Z" fill="#533429"/>
<path d="M27.4001 62L25.0001 62L26 60L27 59L32 53L27.4001 62Z" fill="#533429"/>
<path d="M345 48.5001L345 51.0001L343.037 49.4904L342.303 48.2816L337.662 42L345 48.5001Z" fill="#533429"/>
<path d="M24 0H27L24.375 4.15999L20 11L24 0Z" fill="#533429"/>
<path d="M248 0H252L249 7L248.5 17.5L247.5 35L253 59.5L269 62H252L246 31L247 18.5L247.5 6L248 0Z" fill="#533429"/>
<path d="M122 4L121 0.5L120 0H125L124.5 4L122 8.5L118.5 15L88.5 51L81.5 60L92 62H78L78.5 61.5L118 14.5L121 8L122 4Z" fill="#533429"/>
</svg>
