<svg width="160" height="39" viewBox="0 0 160 39" fill="none" xmlns="http://www.w3.org/2000/svg">
<path fill-rule="evenodd" clip-rule="evenodd" d="M137.672 34.7294L149.036 34.5473C150.678 34.5473 152.321 34.4461 153.963 34.5473C154.036 34.5643 154.101 34.5988 154.148 34.6461C154.195 34.6933 154.221 34.7508 154.223 34.8104C154.219 35.4874 154.158 36.1635 154.041 36.8344C154.185 36.0906 154.385 35.354 154.64 34.6282C154.917 34.4072 155.25 34.2335 155.618 34.1185C155.986 34.0034 156.381 33.9496 156.778 33.9603C157.672 34.2479 158.543 34.5791 159.384 34.9521L157.612 33.8793C156.856 33.4138 156.934 33.3734 156.986 32.6042C156.986 31.3898 157.169 30.1754 157.273 28.961C157.273 24.6702 157.455 20.8651 157.924 16.5135C157.924 16.1289 157.924 15.5622 158.211 15.3598C158.498 15.1574 159.818 15.2191 160 15.1786C159.765 15.1786 158.237 14.9752 158.211 14.9348C157.793 14.1017 157.47 13.2415 157.247 12.3643C157.038 11.5749 156.804 10.7856 156.595 9.99623C156.595 9.51047 156.334 8.98423 156.595 8.84255C156.835 8.6996 157.11 8.59628 157.403 8.53895L160 8.03571C159.149 8.20845 157.735 8.33458 156.856 8.33656C155.996 8.33656 156.152 7.99248 156.074 7.32456C155.996 6.65664 155.735 6.434 155.683 6.00896C155.631 5.58392 155.448 5.13864 156.074 4.7136L159 2.67857L156.126 4.28857C155.083 4.85529 154.692 4.28857 155.162 3.31705L156.5 0.446429L154.51 3.15513C153.858 4.06593 153.546 3.86353 152.19 3.84329C143.537 3.66113 134.91 3.19561 126.126 2.64913C122.529 2.64913 101.182 2.26457 100.244 1.67762C99.931 1.49546 100.135 1.23464 100.5 0C99.4835 2.18591 100.113 1.65737 96.9076 2.10265C93.6232 2.42526 90.3129 2.56056 87.0031 2.50745C86.3515 2.50745 86.2472 2.50745 86.2212 1.92049V0.321536C86.2212 0.908494 86.0387 1.45498 85.9605 2.04193C85.8823 2.62889 85.5174 2.30505 85.0222 2.24433C82.4157 1.98121 79.9917 1.77881 77.4374 1.67762C72.9804 1.67762 69.2532 2.04194 64.7701 2.26458C62.9717 2.26458 63.2062 1.74063 62.4504 0C62.6802 0.824043 62.4898 0.89574 62.4504 1.73833C62.2679 2.02169 61.7988 1.98122 60.9386 1.90026L54.6311 1.43474C51.1645 1.33354 47.724 1.29306 44.2053 1.25258C42.2858 1.39048 40.352 1.34971 38.445 1.13114C38.445 1.13114 37.4025 0.476049 37.1679 0.25341C37.4025 0.597489 37.4546 0.706099 37.3503 1.02994C37.2461 1.35378 36.386 1.37402 35.6561 1.39426C33.7013 1.49546 31.9289 1.61689 29.9741 1.65737C22.7542 2.36577 16.0296 2.83129 8.78372 3.19561C7.79327 3.19561 7.53262 3.47897 7.0374 2.81105C6.54218 2.14314 5.73417 1.17162 5.10863 0.34178C5.62992 1.47522 6.12514 2.36577 6.51611 3.53969C6.51611 3.76232 5.60385 4.16713 5.23895 4.02545C3.93573 3.51945 2.86709 3.11465 1.61599 2.54793C2.47612 3.09441 3.0756 3.60041 3.90967 4.12665C5.18682 4.93624 5.0565 4.6124 4.66554 5.86728C4.06605 7.89127 3.44051 9.75335 2.84102 11.6964C2.58038 12.506 2.55432 12.506 1.56387 12.7893C0.964385 12.9715 0.599482 13.1941 0 13.3763L1.82451 13.0929C2.47612 13.0929 2.91922 12.8501 2.91922 13.437C2.91922 14.024 2.91922 15.0765 2.91922 15.886L3.77935 24.6095C4.06605 27.018 4.3267 29.4266 4.58734 31.8351C4.61068 32.032 4.55612 32.2297 4.43096 32.4018C3.7001 33.1857 2.87064 33.9111 1.95483 34.5675L4.87405 32.9078C5.05908 32.9053 5.24274 32.9328 5.41329 32.9886C5.58385 33.0443 5.73753 33.1271 5.8645 33.2317C5.65598 33.7579 5.4214 34.2841 5.21289 34.7901L6.28153 33.3126C6.43807 33.2129 6.62789 33.1497 6.82888 33.1305H12.3806C10.1912 33.1305 8.1321 32.9686 6.30759 32.9483C5.84136 32.8779 5.40875 32.71 5.0565 32.4626C4.35276 26.006 3.59689 19.4685 3.23199 12.9917C3.30178 12.9146 3.40264 12.8576 3.5187 12.8298C4.43095 12.5667 15.1956 11.3928 22.4675 10.5427C25.3908 9.95568 28.4583 9.95568 31.3816 10.5427C43.6319 12.5667 69.2271 20.4198 78.871 23.9618C80.1379 24.4301 81.2451 25.1235 82.103 25.9858C85.0743 28.2729 88.0717 30.4588 91.1473 32.6042C92.0856 33.9603 93.024 35.4378 92.7894 35.5593C92.0547 35.65 91.3056 35.6431 90.5739 35.539C85.1525 35.539 79.7572 34.9116 74.3618 34.6889C80.0178 35.2557 85.752 35.5188 91.7989 36.0855C92.5287 36.0855 92.9458 36.0855 93.1804 36.3689C93.4979 37.0149 93.657 37.7014 93.6495 38.3929C93.8059 37.1177 93.832 36.3689 94.1447 36.3689C94.6477 36.3345 95.1535 36.3345 95.6565 36.3689C100.192 36.3689 104.727 36.0855 109.262 35.7414C116.977 34.7746 124.604 33.4225 132.095 31.6934C134.936 30.4993 137.777 29.3456 140.774 28.3336C143.771 27.3216 146.169 29.3658 148.593 30.4993C147.264 29.6897 145.987 29.0218 144.762 28.3134C143.537 27.605 142.39 27.4835 143.954 26.4108C147.359 24.0872 150.926 21.9114 154.64 19.8936C155.295 18.6316 156.172 17.4464 157.247 16.3718C157.371 16.4667 157.461 16.5854 157.507 16.7159C157.038 22.1402 156.96 28.1312 156.543 33.6567C155.884 33.9174 155.205 34.1472 154.51 34.3449L137.646 34.8509L137.672 34.7294ZM109.288 35.539C104.627 35.7718 99.9523 35.7718 95.2916 35.539C95.036 35.5461 94.7813 35.5121 94.5435 35.4389C94.3058 35.3657 94.0901 35.2551 93.9102 35.114C93.071 34.2379 92.3545 33.2947 91.7729 32.3006C88.1832 30.0248 84.82 27.5418 81.712 24.8726C81.5198 24.5579 81.4617 24.2038 81.546 23.8617C81.6304 23.5197 81.8528 23.2073 82.1812 22.97C89.3788 16.1413 98.4897 10.6794 108.819 7.00072C111.966 5.8866 115.184 4.90025 118.463 4.04568C118.945 3.7092 119.469 3.41088 120.027 3.15513C120.996 2.91908 122.022 2.8636 123.024 2.99321C133.632 3.37776 144.371 3.74208 154.145 4.18736C154.483 4.36494 154.783 4.58364 155.031 4.83505C155.214 6.0292 155.318 7.18288 155.579 8.33656C156.204 10.1986 156.986 12.6881 157.455 14.1859C157.664 14.8538 157.664 15.0765 157.012 16.0682C156.31 17.2423 155.435 18.3494 154.406 19.3673C150.34 22.0795 146.117 24.6297 141.817 27.0585C138.708 28.6841 135.356 30.0094 131.834 31.0053C124.472 32.9434 116.936 34.4587 109.288 35.539ZM80.1481 23.8403C64.2681 17.9858 47.6794 13.3687 30.6257 10.0569C29.6874 9.85455 29.2443 9.65215 29.2443 9.55095C29.2443 9.44975 29.6613 9.12591 30.4433 8.68063C31.8507 7.85079 33.3103 7.0412 34.77 6.31256C35.6591 4.57091 36.9684 2.97714 38.6275 1.6169C46.8225 1.43735 55.023 1.7554 63.1541 2.56817C70.7668 1.92835 78.4514 2.00991 86.0387 2.81105C90.9649 2.54794 95.0831 2.52769 99.6704 1.96097C105.457 2.26457 111.634 2.52769 117.916 2.77057C118.645 2.77057 119.479 2.77057 118.411 3.35753C116.925 4.14688 112.52 5.38152 108.454 6.8388C104.388 8.29607 100.635 10.0772 99.4879 10.5427C98.7581 10.8261 98.8103 10.5427 98.7842 10.1177C98.7061 8.00493 98.767 5.89048 98.9667 3.78257C98.5091 5.93576 98.3258 8.11872 98.4193 10.2998C98.4193 10.8261 98.6018 10.988 97.507 11.5547C91.3441 14.5939 85.9254 18.459 81.5035 22.97C80.7997 23.7189 80.7215 23.8808 79.9657 23.8403H80.1481ZM3.41444 12.1012C4.01392 9.7331 5.08256 7.56743 5.83843 4.67312C5.99482 4.67312 7.08953 3.72185 7.24591 3.64089C16.603 3.37777 28.2538 2.40626 37.1679 1.6169C37.611 1.85978 37.4546 2.18361 37.0115 2.70985L34.4051 6.00896C32.5471 7.24547 30.569 8.36875 28.4884 9.36879C27.8368 9.49023 26.1687 9.46999 25.3346 9.57118C21.3207 10.0974 4.63947 12.5465 3.77935 12.2226C3.64602 12.1776 3.53592 12.0992 3.46657 12L3.41444 12.1012Z" fill="#503124"/>
</svg>
