<svg width="345" height="80" viewBox="0 0 345 80" fill="none" xmlns="http://www.w3.org/2000/svg">
<path fill-rule="evenodd" clip-rule="evenodd" d="M295.867 72.5399L320.289 72.169C323.818 72.169 327.347 71.9629 330.876 72.169C331.034 72.2036 331.173 72.274 331.274 72.3702C331.375 72.4664 331.431 72.5835 331.436 72.7048C331.427 74.0834 331.296 75.4602 331.044 76.8264C331.355 75.3117 331.785 73.8117 332.333 72.3338C332.927 71.8837 333.642 71.5301 334.433 71.2958C335.224 71.0615 336.073 70.9518 336.926 70.9737C338.849 71.5593 340.72 72.2338 342.527 72.9933L338.718 70.8088C337.094 69.8609 337.262 69.7785 337.374 68.2123C337.374 65.7393 337.766 63.2663 337.99 60.7934C337.99 52.0556 338.382 44.307 339.39 35.4456C339.39 34.6625 339.39 33.5085 340.006 33.0963C340.623 32.6842 345.608 32.6842 346 32.6017C345.496 32.6017 340.063 32.3132 340.006 32.2308C339.107 30.5343 338.414 28.7827 337.934 26.9964C337.486 25.389 336.982 23.7816 336.534 22.1741C336.534 21.185 335.973 20.1133 336.534 19.8248C337.049 19.5337 337.64 19.3233 338.27 19.2066L342.695 18.2586C340.866 18.6104 338.984 18.7904 337.094 18.7944C335.245 18.7944 335.581 18.0938 335.413 16.7336C335.245 15.3735 334.685 14.9201 334.573 14.0546C334.461 13.1891 334.069 12.2823 335.413 11.4168L341.575 7.29521L335.525 10.5513C333.285 11.7053 332.445 10.5513 333.453 8.57291L336.142 3.66821L332.052 8.24317C330.652 10.0979 329.98 9.68573 327.067 9.64451C308.47 9.27357 289.93 8.3256 271.053 7.21278C263.323 7.21278 217.447 6.42968 215.431 5.23442C214.759 4.86347 215.431 3.04998 216.215 0.535811C214.03 4.98712 215.151 5.1932 208.261 6.09995C201.203 6.7569 194.089 7.03241 186.976 6.92427C185.575 6.92427 185.351 6.92426 185.295 5.729V2.47295C185.295 3.66821 184.903 4.78104 184.735 5.9763C184.567 7.17156 183.783 6.5121 182.718 6.38845C177.117 5.85265 171.908 5.4405 166.418 5.23442C156.84 5.23442 148.83 5.97631 139.195 6.42968C135.33 6.42968 135.218 3.79186 133.594 0.247301C134.088 1.92535 134.295 3.64223 134.21 5.35806C133.818 5.93508 132.81 5.85266 130.961 5.68779L117.406 4.73983C109.956 4.53375 102.562 4.45132 95.0002 4.36889C90.8751 4.64971 86.7193 4.56668 82.621 4.12159C82.621 4.12159 78.532 0.453374 78.0279 0C78.532 0.70067 80.4925 3.25606 80.2684 3.91551C80.0444 4.57496 78.1959 4.61618 76.6275 4.6574C72.4264 4.86348 68.6175 5.11076 64.4164 5.19319C48.9004 6.63575 34.4488 7.58372 18.8768 8.32561C16.7483 8.32561 16.1881 8.90263 15.1239 7.54251C14.0596 6.18239 12.3231 4.20402 10.9788 2.51417C12.0991 4.82226 13.1633 6.63575 14.0036 9.02627C14.0036 9.47964 12.0431 10.304 11.2589 10.0155C8.45815 8.98506 6.16157 8.16074 3.47288 7.0067C5.32135 8.11953 6.60968 9.14992 8.40214 10.2215C11.1468 11.8702 10.8668 11.2107 10.0266 13.7661C8.73823 17.8877 7.39388 21.6795 6.10555 25.6363C5.54541 27.2849 5.4894 27.2849 3.36086 27.8619C2.07253 28.2329 1.28833 28.6862 0 29.0572L3.921 28.4802C5.32135 28.4802 6.2736 27.9856 6.2736 29.1808C6.2736 30.3761 6.2736 32.5193 6.2736 34.168L8.12207 51.932C8.73823 56.8367 9.29837 61.7413 9.85851 66.646C9.90867 67.0469 9.79142 67.4495 9.52243 67.8001C7.95176 69.3963 6.1692 70.8736 4.20107 72.2102L10.4747 68.8305C10.8723 68.8253 11.267 68.8813 11.6335 68.9949C12.0001 69.1084 12.3303 69.2771 12.6032 69.4899C12.1551 70.5616 11.651 71.6332 11.2029 72.6635L13.4994 69.6548C13.8358 69.4516 14.2438 69.323 14.6757 69.2838H26.6068C21.9016 69.2838 17.4764 68.9541 13.5554 68.9129C12.5535 68.7696 11.6238 68.4276 10.8668 67.9237C9.35438 54.7759 7.72997 41.4632 6.94577 28.2741C7.09575 28.1169 7.31252 28.0009 7.56193 27.9443C9.52242 27.4085 32.6563 25.018 48.2843 23.287C54.5666 22.0916 61.1589 22.0916 67.4412 23.287C93.7679 27.4086 148.774 43.4003 169.499 50.6131C172.222 51.5668 174.601 52.9788 176.445 54.7347C182.831 59.392 189.272 63.8434 195.882 68.2123C197.898 70.9737 199.915 73.9825 199.411 74.2298C197.832 74.4145 196.222 74.4006 194.65 74.1885C182.999 74.1885 171.404 72.9109 159.809 72.4575C171.964 73.6115 184.287 74.1473 197.282 75.3014C198.851 75.3014 199.747 75.3014 200.251 75.8784C200.933 77.194 201.275 78.5919 201.259 80C201.595 77.4034 201.651 75.8784 202.323 75.8784C203.404 75.8085 204.491 75.8085 205.572 75.8784C215.319 75.8784 225.065 75.3014 234.812 74.6007C251.392 72.6319 267.782 69.8785 283.88 66.3575C289.986 63.9258 296.091 61.5765 302.533 59.5157C308.975 57.4549 314.128 61.6177 319.337 63.9258C316.481 62.2772 313.736 60.917 311.103 59.4745C308.47 58.0319 306.006 57.7846 309.367 55.6002C316.684 50.8684 324.351 46.4378 332.333 42.3287C333.74 39.7589 335.625 37.3453 337.934 35.1571C338.201 35.3503 338.394 35.592 338.494 35.8578C337.486 46.9037 337.318 59.1035 336.422 70.3555C335.004 70.8863 333.546 71.3542 332.052 71.7568L295.811 72.7872L295.867 72.5399ZM234.868 74.1885C224.852 74.6625 214.804 74.6625 204.788 74.1885C204.239 74.203 203.691 74.1336 203.18 73.9847C202.67 73.8357 202.206 73.6104 201.819 73.323C200.016 71.5389 198.476 69.6184 197.226 67.594C189.512 62.9597 182.284 57.9032 175.605 52.4678C175.192 51.8269 175.067 51.106 175.248 50.4094C175.429 49.7127 175.907 49.0767 176.613 48.5935C192.081 34.6878 211.661 23.5653 233.86 16.0742C240.622 13.8054 247.539 11.7969 254.585 10.0567C255.62 9.37147 256.746 8.76397 257.946 8.24317C260.028 7.76249 262.235 7.64952 264.387 7.91344C287.185 8.69654 310.263 9.43842 331.268 10.3452C331.995 10.7068 332.638 11.1521 333.173 11.6641C333.565 14.0958 333.789 16.4451 334.349 18.7944C335.693 22.5863 337.374 27.6558 338.382 30.7058C338.83 32.0659 338.83 32.5193 337.43 34.5389C335.921 36.9298 334.042 39.1842 331.828 41.2571C323.09 46.78 314.016 51.9732 304.774 56.9191C298.093 60.2294 290.888 62.9283 283.32 64.9562C267.499 68.9029 251.304 71.9887 234.868 74.1885ZM172.244 50.3658C138.117 38.4438 102.466 29.0418 65.8167 22.2978C63.8002 21.8856 62.848 21.4735 62.848 21.2674C62.848 21.0613 63.7442 20.4018 65.4246 19.4951C68.4494 17.8052 71.5862 16.1566 74.723 14.6729C76.6339 11.1262 79.4476 7.88073 83.0131 5.11077C100.625 4.74515 118.248 5.39282 135.723 7.04791C152.083 5.745 168.597 5.9111 184.903 7.54251C195.49 7.0067 204.34 6.96548 214.199 5.81144C226.634 6.42967 239.909 6.96549 253.408 7.46008C254.977 7.46008 256.769 7.46006 254.473 8.65532C251.28 10.2627 241.814 12.7769 233.075 15.7445C224.337 18.712 216.271 22.339 213.806 23.287C212.238 23.864 212.35 23.287 212.294 22.4214C212.126 18.1191 212.257 13.8133 212.686 9.52087C211.703 13.9056 211.309 18.3508 211.51 22.7924C211.51 23.864 211.902 24.1937 209.549 25.3478C196.305 31.5366 184.66 39.4075 175.157 48.5935C173.644 50.1185 173.476 50.4482 171.852 50.3658H172.244ZM7.33786 26.4606C8.62619 21.6383 10.9228 17.2282 12.5472 11.3344C12.8833 11.3344 15.2359 9.39722 15.572 9.23236C35.6811 8.69655 60.7194 6.71819 79.8763 5.11077C80.8286 5.60536 80.4925 6.26481 79.5402 7.33642L73.9388 14.0546C69.946 16.5726 65.695 18.86 61.2236 20.8964C59.8232 21.1437 56.2383 21.1025 54.4458 21.3086C45.8197 22.3802 9.97054 27.3673 8.12207 26.7079C7.83555 26.6162 7.59894 26.4566 7.4499 26.2545L7.33786 26.4606Z" fill="#503124"/>
</svg>
