<svg width="150" height="55" viewBox="0 0 150 55" fill="none" xmlns="http://www.w3.org/2000/svg">
<path fill-rule="evenodd" clip-rule="evenodd" d="M128.266 49.8712L138.854 49.6162C140.384 49.6162 141.914 49.4745 143.443 49.6162C143.512 49.64 143.572 49.6884 143.616 49.7545C143.66 49.8206 143.684 49.9011 143.686 49.9845C143.682 50.9324 143.625 51.8789 143.516 52.8181C143.651 51.7768 143.837 50.7455 144.075 49.7295C144.332 49.42 144.643 49.1769 144.986 49.0159C145.329 48.8548 145.697 48.7794 146.066 48.7944C146.9 49.197 147.711 49.6608 148.494 50.1829L146.843 48.6811C146.139 48.0294 146.212 47.9727 146.26 46.8959C146.26 45.1958 146.43 43.4956 146.527 41.7955C146.527 35.7882 146.697 30.4611 147.135 24.3689C147.135 23.8305 147.135 23.0371 147.402 22.7537C147.669 22.4704 149.83 22.4704 150 22.4137C149.781 22.4137 147.426 22.2153 147.402 22.1587C147.012 20.9923 146.711 19.7881 146.503 18.56C146.309 17.4549 146.09 16.3498 145.896 15.2447C145.896 14.5647 145.653 13.8279 145.896 13.6296C146.12 13.4294 146.376 13.2848 146.649 13.2045L150 12C149.207 12.2418 146.958 12.9184 146.139 12.9212C145.338 12.9212 145.483 12.4395 145.41 11.5044C145.338 10.5693 145.095 10.2576 145.046 9.66254C144.998 9.06749 144.828 8.4441 145.41 7.84905L149.162 4.5L145.459 7.25399C144.488 8.0474 144.123 7.254 144.56 5.89387L146.648 1L143.953 5.66718C143.346 6.9423 143.055 6.65894 141.792 6.6306C133.73 6.37558 125.692 5.72385 117.508 4.95878C114.157 4.95878 94.2691 4.4204 93.3949 3.59866C93.1034 3.34364 93.5148 1.72849 93.8548 0C92.9077 3.06028 93.2734 3.57032 90.2866 4.19371C87.2266 4.64537 84.1424 4.83478 81.0588 4.76043C80.4517 4.76043 80.3545 4.76043 80.3303 3.93869L80.4469 0C80.4469 0.821741 80.1603 3.28697 80.0874 4.10871C80.0146 4.93045 79.6746 4.47707 79.2132 4.39206C76.7849 4.0237 74.5265 3.74034 72.1467 3.59866C67.9942 3.59866 64.5216 4.10871 60.3448 4.4204C58.6693 4.4204 58.6207 2.60691 57.9165 0.170019C58.1306 1.32368 58.2203 2.50404 58.1836 3.68367C58.0136 4.08037 57.5765 4.0237 56.7751 3.91036L50.8985 3.25863C47.6688 3.11695 44.4633 3.06028 41.185 3.00361C39.3967 3.19668 37.5951 3.13959 35.8184 2.83359C35.8184 2.83359 34.0457 0.311695 33.8271 0C34.0457 0.48171 34.8956 2.23854 34.7984 2.69191C34.7013 3.14529 33.9 3.17362 33.22 3.20196C31.3987 3.34364 29.7475 3.51365 27.9262 3.57032C21.1996 4.56208 14.9344 5.21381 8.18359 5.72385C7.26081 5.72385 7.01797 6.12056 6.55658 5.18548C6.09519 4.25039 4.77275 1.66177 4.18994 0.5C4.67562 2.08681 5.70665 4.56208 6.07091 6.20556C6.07091 6.51725 5.22098 7.08398 4.88101 6.88563C3.66683 6.17723 2.0036 4.79341 0.837989 4C1.63935 4.76507 2.86547 6.29057 3.64254 7.0273C4.83244 8.16074 4.71103 7.70737 4.34677 9.46419C3.78825 12.2978 3.20544 14.9047 2.64692 17.6249C2.40408 18.7584 2.3798 18.7584 1.45702 19.1551C0.898495 19.4101 0.558524 19.7218 0 19.9768L1.69985 19.5801C2.30694 19.5801 2.71977 19.2401 2.71977 20.0618C2.71977 20.8836 2.71977 22.357 2.71977 23.4905L3.52113 35.7032C3.78825 39.0752 4.03108 42.4472 4.27392 45.8191C4.29566 46.0948 4.24484 46.3715 4.12822 46.6126C3.4473 47.71 2.67451 48.7256 1.82127 49.6445L4.54104 47.3209C4.71343 47.3174 4.88454 47.3559 5.04344 47.434C5.20234 47.512 5.34552 47.628 5.46382 47.7743C5.26955 48.5111 5.051 49.2478 4.85673 49.9562L5.85236 47.8877C5.9982 47.748 6.17505 47.6596 6.36231 47.6326H11.5347C9.4949 47.6326 7.57649 47.406 5.87664 47.3776C5.44226 47.2791 5.03921 47.044 4.71103 46.6976C4.05537 37.6584 3.35114 28.5059 3.01117 19.4384C3.07619 19.3304 3.17017 19.2506 3.27829 19.2117C4.12822 18.8434 14.1574 17.1999 20.9325 16.0098C23.656 15.1879 26.514 15.1879 29.2375 16.0098C40.6508 18.8434 64.4973 29.8377 73.4823 34.7965C74.6627 35.4522 75.6942 36.4229 76.4934 37.6301C79.2618 40.832 82.0544 43.8923 84.9199 46.8959C85.7941 48.7944 86.6683 50.863 86.4497 51.033C85.7653 51.16 85.0673 51.1504 84.3856 51.0046C79.3346 51.0046 74.3079 50.1262 69.2812 49.8145C74.5508 50.6079 79.8932 50.9763 85.527 51.7697C86.2069 51.7697 86.5954 51.7697 86.814 52.1664C87.1098 53.0709 87.2581 54.0319 87.2511 55C87.3968 53.2148 87.4211 52.1664 87.7125 52.1664C88.1811 52.1183 88.6524 52.1183 89.1209 52.1664C93.3463 52.1664 97.5716 51.7697 101.797 51.288C108.985 49.9345 116.09 48.0415 123.069 45.6208C125.716 43.949 128.363 42.3338 131.156 40.917C133.949 39.5003 136.183 42.3622 138.441 43.949C137.203 42.8156 136.013 41.8805 134.871 40.8887C133.73 39.8969 132.661 39.7269 134.119 38.2251C137.291 34.972 140.615 31.926 144.075 29.101C144.685 27.3342 145.502 25.6749 146.503 24.1705C146.619 24.3034 146.703 24.4695 146.746 24.6522C146.309 32.2463 146.236 40.6337 145.848 48.3694C145.233 48.7343 144.601 49.056 143.953 49.3328L128.242 50.0412L128.266 49.8712ZM101.821 51.0046C97.479 51.3305 93.1233 51.3305 88.781 51.0046C88.5429 51.0146 88.3055 50.9669 88.084 50.8644C87.8625 50.762 87.6616 50.6072 87.4939 50.4096C86.7121 49.183 86.0446 47.8626 85.5027 46.4709C82.1583 43.2848 79.0249 39.8085 76.1292 36.0716C75.9501 35.631 75.896 35.1353 75.9746 34.6564C76.0531 34.1775 76.2604 33.7403 76.5663 33.408C83.2721 23.8479 91.7606 16.2011 101.384 11.051C104.316 9.49123 107.315 8.11035 110.369 6.91396C110.818 6.44288 111.306 6.02523 111.826 5.66718C112.729 5.33671 113.686 5.25905 114.619 5.44049C124.502 5.97887 134.507 6.48892 143.613 7.11231C143.929 7.36092 144.207 7.66709 144.439 8.01906C144.609 9.69088 144.706 11.306 144.949 12.9212C145.532 15.5281 146.26 19.0134 146.697 21.1103C146.892 22.0453 146.892 22.357 146.285 23.7455C145.631 25.3892 144.816 26.9391 143.856 28.3642C140.068 32.1612 136.134 35.7316 132.127 39.1319C129.231 41.4077 126.108 43.2632 122.827 44.6574C115.968 47.3708 108.947 49.4922 101.821 51.0046ZM74.6722 34.6265C59.8771 26.4301 44.4218 19.9662 28.5333 15.3297C27.6591 15.0464 27.2462 14.763 27.2462 14.6213C27.2462 14.4796 27.6348 14.0263 28.3633 13.4029C29.6746 12.2411 31.0345 11.1077 32.3944 10.0876C33.2228 7.64928 34.4426 5.418 35.9883 3.51366C43.6234 3.26229 51.2636 3.70757 58.8392 4.84544C65.9318 3.94969 73.0914 4.06388 80.1603 5.18548C84.7499 4.81711 88.5867 4.78877 92.8606 3.99536C98.2516 4.4204 104.007 4.78877 109.859 5.1288C110.539 5.1288 111.316 5.12879 110.321 5.95054C108.936 7.05564 104.832 8.78413 101.044 10.8243C97.256 12.8645 93.7591 15.3581 92.6906 16.0098C92.0107 16.4065 92.0593 16.0098 92.035 15.4147C91.9622 12.4569 92.019 9.49667 92.205 6.5456C91.7787 9.56007 91.6078 12.6162 91.695 15.6698C91.695 16.4065 91.865 16.6332 90.8451 17.4266C85.1032 21.6814 80.0547 27.0926 75.9349 33.408C75.2793 34.4565 75.2064 34.6832 74.5022 34.6265H74.6722ZM3.18115 18.1916C3.73968 14.8763 4.73531 11.8444 5.43953 7.79237C5.58524 7.79237 6.60515 6.46059 6.75085 6.34725C15.4687 5.97888 26.3235 4.61876 34.6285 3.51366C35.0413 3.85369 34.8956 4.30705 34.4828 5.04379L32.0544 9.66254C30.3234 11.3937 28.4805 12.9663 26.542 14.3663C25.9349 14.5363 24.3808 14.508 23.6037 14.6497C19.864 15.3864 4.32249 18.815 3.52113 18.3617C3.39691 18.2986 3.29434 18.1889 3.22972 18.05L3.18115 18.1916Z" fill="#533429"/>
</svg>
