<svg width="277" height="48" viewBox="0 0 277 48" fill="none" xmlns="http://www.w3.org/2000/svg">
<path fill-rule="evenodd" clip-rule="evenodd" d="M236.865 43.5239L256.417 43.3014C259.242 43.3014 262.067 43.1777 264.892 43.3014C265.019 43.3222 265.13 43.3644 265.211 43.4221C265.291 43.4798 265.337 43.5501 265.341 43.6229C265.333 44.4501 265.228 45.2761 265.027 46.0958C265.275 45.187 265.62 44.287 266.058 43.4003C266.534 43.1302 267.107 42.918 267.74 42.7775C268.373 42.6369 269.053 42.5711 269.735 42.5842C271.275 42.9356 272.773 43.3403 274.22 43.796L271.17 42.4853C269.87 41.9165 270.004 41.8671 270.094 40.9274C270.094 39.4436 270.408 37.9598 270.587 36.476C270.587 31.2334 270.901 26.5842 271.708 21.2674C271.708 20.7975 271.708 20.1051 272.202 19.8578C272.695 19.6105 276.686 19.6105 277 19.561C276.596 19.561 272.247 19.3879 272.202 19.3385C271.482 18.3206 270.927 17.2696 270.543 16.1978C270.184 15.2334 269.78 14.2689 269.421 13.3045C269.421 12.711 268.973 12.068 269.421 11.8949C269.834 11.7202 270.307 11.594 270.812 11.524L277 10.4727C275.536 10.6838 271.383 11.2743 269.87 11.2767C268.39 11.2767 268.659 10.8563 268.525 10.0402C268.39 9.22411 267.942 8.95208 267.852 8.43276C267.762 7.91344 267.448 7.3694 268.525 6.85008L275.453 3.92727L268.614 6.33076C266.82 7.02319 266.148 6.33076 266.955 5.14374L270.81 0.872727L265.834 4.9459C264.713 6.05873 264.175 5.81144 261.843 5.78671C246.955 5.56414 232.111 4.99536 216.999 4.32766C210.811 4.32766 174.084 3.85781 172.469 3.14065C171.931 2.91808 172.691 1.5085 173.318 0C171.57 2.67079 172.245 3.11592 166.729 3.65997C161.078 4.05414 155.383 4.21945 149.689 4.15456C148.567 4.15456 148.388 4.15456 148.343 3.4374L148.559 0C148.559 0.717156 148.029 2.86863 147.895 3.58578C147.76 4.30294 147.132 3.90726 146.28 3.83307C141.796 3.51159 137.626 3.2643 133.231 3.14065C125.563 3.14065 119.15 3.58578 111.437 3.85781C108.343 3.85781 108.253 2.27512 106.952 0.14838C107.348 1.15521 107.514 2.18534 107.446 3.21484C107.132 3.56105 106.325 3.51159 104.845 3.41268L93.9926 2.8439C88.0283 2.72025 82.1089 2.67079 76.055 2.62133C72.7526 2.78983 69.4255 2.74001 66.1446 2.47295C66.1446 2.47295 62.871 0.272025 62.4674 0C62.871 0.420402 64.4405 1.95363 64.2611 2.34931C64.0818 2.74498 62.6019 2.76971 61.3463 2.79444C57.983 2.91809 54.9336 3.06646 51.5703 3.11591C39.1486 3.98145 27.5789 4.55023 15.1124 4.99536C13.4083 4.99536 12.9599 5.34158 12.1078 4.52551C11.2558 3.70943 8.81368 1.45027 7.73743 0.436364C8.63431 1.82122 10.5383 3.98145 11.2109 5.41576C11.2109 5.68779 9.64141 6.18238 9.0136 6.00927C6.77141 5.39104 3.69999 4.18334 1.54749 3.49091C3.02733 4.15861 5.29157 5.48995 6.72657 6.13292C8.92391 7.1221 8.6997 6.72643 8.02704 8.25966C6.99563 10.7326 5.91938 13.0077 4.88797 15.3818C4.43953 16.3709 4.39469 16.3709 2.69063 16.7171C1.65922 16.9397 1.03141 17.2117 0 17.4343L3.13906 17.0881C4.26016 17.0881 5.02251 16.7913 5.02251 17.5085C5.02251 18.2257 5.02251 19.5116 5.02251 20.5008L6.50235 31.1592C6.99563 34.102 7.44407 37.0448 7.89251 39.9876C7.93266 40.2281 7.8388 40.4697 7.62345 40.68C6.36601 41.6378 4.93892 42.5242 3.36328 43.3261L8.38579 41.2983C8.70413 41.2952 9.02012 41.3288 9.31355 41.3969C9.60699 41.4651 9.8714 41.5662 10.0898 41.694C9.7311 42.3369 9.32751 42.9799 8.96876 43.5981L10.8074 41.7929C11.0767 41.671 11.4033 41.5938 11.7491 41.5703H21.3008C17.5339 41.5703 13.9913 41.3725 10.8522 41.3478C10.05 41.2618 9.30573 41.0565 8.6997 40.7542C7.48891 32.8655 6.18844 24.8779 5.56063 16.9644C5.6807 16.8702 5.85424 16.8006 6.05391 16.7666C7.62344 16.4451 26.1439 15.0108 38.6553 13.9722C43.6848 13.2549 48.9624 13.2549 53.9919 13.9722C75.0685 16.4451 119.105 26.0402 135.697 30.3678C137.877 30.9401 139.782 31.7873 141.258 32.8408C146.37 35.6352 151.527 38.306 156.819 40.9274C158.433 42.5842 160.047 44.3895 159.644 44.5379C158.38 44.6487 157.091 44.6403 155.832 44.5131C146.505 44.5131 137.222 43.7465 127.939 43.4745C137.67 44.1669 147.536 44.4884 157.94 45.1808C159.195 45.1808 159.913 45.1808 160.317 45.527C160.863 46.3164 161.137 47.1551 161.124 48C161.393 46.442 161.438 45.527 161.976 45.527C162.841 45.4851 163.711 45.4851 164.577 45.527C172.379 45.527 180.182 45.1808 187.985 44.7604C201.259 43.5792 214.38 41.9271 227.268 39.8145C232.156 38.3555 237.044 36.9459 242.201 35.7094C247.358 34.4729 251.484 36.9706 255.654 38.3555C253.367 37.3663 251.17 36.5502 249.062 35.6847C246.955 34.8192 244.982 34.6708 247.672 33.3601C253.53 30.5211 259.668 27.8627 266.058 25.3972C267.185 23.8553 268.694 22.4072 270.543 21.0943C270.757 21.2102 270.911 21.3552 270.991 21.5147C270.184 28.1422 270.049 35.4621 269.332 42.2133C268.197 42.5318 267.029 42.8125 265.834 43.0541L236.82 43.6723L236.865 43.5239ZM188.03 44.5131C180.011 44.7975 171.968 44.7975 163.949 44.5131C163.509 44.5218 163.071 44.4802 162.662 44.3908C162.253 44.3014 161.882 44.1662 161.572 43.9938C160.128 42.9233 158.896 41.771 157.895 40.5564C151.719 37.7758 145.933 34.7419 140.585 31.4807C140.255 31.0962 140.155 30.6636 140.3 30.2456C140.445 29.8277 140.828 29.446 141.392 29.1561C153.776 20.8127 169.451 14.1392 187.223 9.64452C192.636 8.28326 198.174 7.07812 203.815 6.034C204.644 5.62288 205.545 5.25838 206.506 4.9459C208.173 4.65749 209.939 4.58971 211.663 4.74806C229.914 5.21792 248.39 5.66305 265.206 6.2071C265.788 6.42407 266.303 6.69128 266.731 6.99846C267.045 8.4575 267.224 9.86708 267.673 11.2767C268.749 13.5518 270.094 16.5935 270.901 18.4235C271.26 19.2396 271.26 19.5116 270.139 20.7233C268.931 22.1579 267.426 23.5105 265.655 24.7542C258.659 28.068 251.394 31.1839 243.995 34.1515C238.646 36.1376 232.879 37.757 226.82 38.9737C214.153 41.3417 201.189 43.1932 188.03 44.5131ZM137.895 30.2195C110.573 23.0663 82.0323 17.4251 52.6914 13.3787C51.0771 13.1314 50.3147 12.8841 50.3147 12.7604C50.3147 12.6368 51.0322 12.2411 52.3775 11.6971C54.7991 10.6831 57.3104 9.69397 59.8216 8.80371C61.3514 6.67573 63.604 4.72844 66.4585 3.06646C80.5579 2.84709 94.6669 3.23569 108.656 4.22874C121.754 3.447 134.975 3.54666 148.029 4.52551C156.505 4.20402 163.59 4.17929 171.483 3.48686C181.438 3.8578 192.066 4.17929 202.873 4.47605C204.129 4.47605 205.564 4.47604 203.725 5.19319C201.169 6.15765 193.591 7.66615 186.595 9.44667C179.599 11.2272 173.142 13.4034 171.169 13.9722C169.913 14.3184 170.003 13.9722 169.958 13.4529C169.824 10.8715 169.928 8.28801 170.272 5.71252C169.485 8.34333 169.169 11.0105 169.33 13.6754C169.33 14.3184 169.644 14.5162 167.761 15.2087C157.157 18.922 147.834 23.6445 140.227 29.1561C139.016 30.0711 138.881 30.2689 137.581 30.2195H137.895ZM5.87453 15.8763C6.90594 12.983 8.74454 10.3369 10.045 6.80062C10.3141 6.80062 12.1975 5.63833 12.4666 5.53942C28.5655 5.21793 48.6107 4.03092 63.9472 3.06646C64.7096 3.36322 64.4405 3.75888 63.6782 4.40185L59.1938 8.43276C55.9972 9.94356 52.5939 11.316 49.0143 12.5379C47.8932 12.6862 45.0232 12.6615 43.5882 12.7852C36.6822 13.4281 7.9822 16.4204 6.50235 16.0247C6.27297 15.9697 6.08354 15.8739 5.96422 15.7527L5.87453 15.8763Z" fill="#533429"/>
</svg>
