<svg width="168" height="63" viewBox="0 0 168 63" fill="none" xmlns="http://www.w3.org/2000/svg">
<path fill-rule="evenodd" clip-rule="evenodd" d="M144.074 57.1252L155.967 56.8331C157.685 56.8331 159.404 56.6708 161.122 56.8331C161.199 56.8603 161.267 56.9158 161.316 56.9915C161.365 57.0673 161.393 57.1595 161.395 57.255C161.39 58.3407 161.327 59.4249 161.204 60.5008C161.355 59.308 161.565 58.1267 161.832 56.9629C162.121 56.6084 162.469 56.3299 162.854 56.1455C163.24 55.961 163.653 55.8746 164.068 55.8918C165.005 56.353 165.916 56.8842 166.796 57.4822L164.941 55.762C164.15 55.0154 164.232 54.9505 164.286 53.7172C164.286 51.7697 164.477 49.8222 164.586 47.8748C164.586 40.9938 164.777 34.8918 165.268 27.9134C165.268 27.2967 165.268 26.3879 165.568 26.0634C165.868 25.7388 168.296 25.7388 168.487 25.6739C168.241 25.6739 165.596 25.4467 165.568 25.3818C165.131 24.0458 164.793 22.6664 164.559 21.2597C164.341 19.9938 164.095 18.728 163.877 17.4621C163.877 16.6832 163.604 15.8393 163.877 15.6121C164.128 15.3828 164.416 15.2171 164.723 15.1252L166.878 14.3787C165.987 14.6557 165.071 14.7975 164.15 14.8006C163.25 14.8006 163.414 14.2488 163.332 13.1777C163.25 12.1066 162.977 11.7496 162.923 11.068C162.868 10.3864 162.677 9.67233 163.332 8.99073L166.332 5.74498L163.386 8.30912C162.295 9.21793 161.886 8.30912 162.377 6.75116L163.686 2.88871L161.695 6.4915C161.013 7.95209 160.686 7.62751 159.268 7.59505C150.212 7.30294 141.183 6.55641 131.991 5.68006C128.227 5.68006 105.887 5.06337 104.905 4.1221C104.578 3.82999 104.905 2.40186 105.287 0.421951C104.224 3.92736 104.769 4.08964 101.414 4.80371C97.977 5.32106 94.5127 5.53803 91.049 5.45286C90.3671 5.45286 90.258 5.45286 90.2307 4.51159V1.94744C90.2307 2.88871 90.0397 3.76507 89.9579 4.70634C89.8761 5.64761 89.4942 5.12828 88.976 5.03091C86.2483 4.60896 83.7116 4.28439 81.0385 4.1221C76.3742 4.1221 72.4737 4.70634 67.7821 5.06337C65.9 5.06337 65.8455 2.98609 65.0545 0.194749C65.295 1.51621 65.3958 2.86826 65.3545 4.21947C65.1636 4.67388 64.6726 4.60897 63.7725 4.47914L57.1715 3.73262C53.5438 3.57033 49.9433 3.50541 46.2609 3.4405C44.2522 3.66165 42.2285 3.59626 40.2328 3.24575C40.2328 3.24575 38.2417 0.357032 37.9962 0C38.2417 0.551777 39.1963 2.56414 39.0872 3.08346C38.9781 3.60278 38.078 3.63524 37.3143 3.6677C35.2685 3.82999 33.4137 4.02472 31.368 4.08964C23.8124 5.22565 16.7751 5.97218 9.19218 6.55641C8.15568 6.55641 7.88291 7.01082 7.36466 5.93973C6.8464 4.86863 6.00083 3.31067 5.34619 1.97991C5.89172 3.79753 6.40998 5.22565 6.81913 7.10819C6.81913 7.46522 5.86445 8.11437 5.48258 7.88717C4.11875 7.07573 3.00042 6.42659 1.69114 5.51778C2.59127 6.39413 3.21863 7.20556 4.09148 8.04946C5.42802 9.34776 5.29164 8.82844 4.8825 10.8408C4.25514 14.0866 3.6005 17.0726 2.97314 20.1886C2.70037 21.4869 2.6731 21.4869 1.63659 21.9413C1.00923 22.2334 0.62736 22.5904 0 22.8825L1.90935 22.4281C2.59127 22.4281 3.05497 22.0386 3.05497 22.9799C3.05497 23.9212 3.05497 25.609 3.05497 26.9073L3.9551 40.8964C4.25514 44.7589 4.5279 48.6213 4.80067 52.4838C4.82509 52.7995 4.768 53.1165 4.63701 53.3926C3.87216 54.6496 3.00413 55.813 2.04574 56.8655L5.10071 54.204C5.29434 54.1999 5.48654 54.244 5.66503 54.3335C5.84351 54.4229 6.00434 54.5557 6.13721 54.7233C5.919 55.5672 5.67351 56.4111 5.4553 57.2225L6.57364 54.8532C6.73746 54.6932 6.93611 54.5919 7.14645 54.561H12.9563C10.6651 54.561 8.51027 54.3014 6.60091 54.2689C6.113 54.1561 5.66027 53.8867 5.29164 53.49C4.55518 43.136 3.76416 32.6522 3.38229 22.2658C3.45532 22.1421 3.56088 22.0507 3.68233 22.0062C4.63701 21.5842 15.9022 19.7017 23.5123 18.3385C26.5716 17.3971 29.7817 17.3971 32.8409 18.3385C45.6609 21.5842 72.4464 34.1777 82.5387 39.8578C83.8646 40.6089 85.0232 41.7208 85.921 43.1035C89.0305 46.7712 92.1673 50.2767 95.3859 53.7172C96.3679 55.8918 97.3498 58.2612 97.1044 58.4559C96.3355 58.6014 95.5516 58.5904 94.7859 58.4235C89.1123 58.4235 83.4661 57.4173 77.8199 57.0603C83.7389 57.9691 89.7397 58.391 96.0679 59.2998C96.8316 59.2998 97.268 59.2998 97.5135 59.7543C97.8458 60.7903 98.0123 61.8911 98.0045 63C98.1681 60.9552 98.1954 59.7543 98.5227 59.7543C99.0491 59.6992 99.5784 59.6992 100.105 59.7543C104.851 59.7543 109.597 59.2998 114.343 58.7481C122.417 57.1977 130.398 55.0293 138.237 52.2566C141.21 50.3416 144.184 48.4915 147.32 46.8686C150.457 45.2457 152.967 48.524 155.503 50.3416C154.112 49.0433 152.776 47.9722 151.494 46.8362C150.212 45.7001 149.012 45.5054 150.648 43.7852C154.211 40.0589 157.945 36.5698 161.832 33.3338C162.517 31.3101 163.435 29.4094 164.559 27.6862C164.689 27.8384 164.783 28.0287 164.832 28.238C164.341 36.9366 164.259 46.544 163.823 55.4049C163.133 55.8229 162.422 56.1914 161.695 56.5085L144.047 57.3199L144.074 57.1252ZM114.37 58.4235C109.493 58.7967 104.6 58.7967 99.7229 58.4235C99.4554 58.4349 99.1889 58.3802 98.9401 58.2629C98.6912 58.1456 98.4655 57.9682 98.2772 57.7419C97.3991 56.3369 96.6493 54.8245 96.0406 53.2303C92.284 49.5807 88.7644 45.5988 85.5118 41.3184C85.3107 40.8137 85.2499 40.2459 85.3381 39.6974C85.4264 39.1488 85.6592 38.6479 86.0028 38.2674C93.5351 27.3167 103.07 18.5576 113.879 12.6584C117.172 10.8718 120.541 9.29003 123.972 7.91962C124.476 7.38003 125.024 6.90163 125.608 6.4915C126.622 6.11296 127.697 6.024 128.745 6.23183C139.847 6.84852 151.085 7.43276 161.313 8.14682C161.667 8.4316 161.98 8.7823 162.241 9.18548C162.432 11.1005 162.541 12.9505 162.813 14.8006C163.468 17.7867 164.286 21.779 164.777 24.1808C164.996 25.2519 164.996 25.609 164.314 27.1994C163.579 29.0822 162.664 30.8575 161.586 32.4899C157.331 36.8392 152.912 40.9289 148.411 44.8238C145.158 47.4307 141.65 49.5561 137.965 51.153C130.26 54.261 122.374 56.6911 114.37 58.4235ZM83.8752 39.6631C67.2567 30.2745 49.8966 22.8704 32.0499 17.5595C31.0679 17.2349 30.6042 16.9104 30.6042 16.7481C30.6042 16.5858 31.0407 16.0665 31.859 15.3524C33.3319 14.0216 34.8594 12.7233 36.3869 11.5549C37.3174 8.7619 38.6875 6.20607 40.4238 4.02473C48.9998 3.7368 57.5817 4.24685 66.091 5.55023C74.0576 4.52419 82.0996 4.65499 90.0397 5.93973C95.195 5.51778 99.5047 5.48532 104.305 4.57651C110.361 5.06337 116.825 5.48532 123.399 5.87481C124.163 5.87481 125.035 5.8748 123.917 6.81607C122.362 8.08191 117.753 10.0618 113.498 12.3988C109.242 14.7357 105.315 17.592 104.114 18.3385C103.351 18.7929 103.405 18.3385 103.378 17.6569C103.296 14.2688 103.36 10.878 103.569 7.49768C103.09 10.9506 102.898 14.4513 102.996 17.949C102.996 18.7929 103.187 19.0526 102.041 19.9614C95.5919 24.8351 89.9212 31.0334 85.2936 38.2674C84.5572 39.4683 84.4753 39.728 83.6843 39.6631H83.8752ZM3.57322 20.8377C4.20058 17.0402 5.31892 13.5672 6.10994 8.92581C6.2736 8.92581 7.41921 7.40031 7.58287 7.27048C17.3751 6.84854 29.5677 5.29058 38.8963 4.02473C39.36 4.41422 39.1963 4.93353 38.7326 5.77743L36.005 11.068C34.0607 13.0509 31.9906 14.8523 29.8132 16.4559C29.1313 16.6507 27.3856 16.6182 26.5128 16.7805C22.3122 17.6244 4.85522 21.5518 3.9551 21.0325C3.81557 20.9602 3.70035 20.8345 3.62777 20.6754L3.57322 20.8377Z" fill="#503124"/>
</svg>
