<svg width="327" height="62" viewBox="0 0 327 62" fill="none" xmlns="http://www.w3.org/2000/svg">
<path d="M294 0H297L294.375 4.15999L290 11L294 0Z" fill="#533429"/>
<path d="M7.40007 62L5.00007 62L6 60L7 59L12 53L7.40007 62Z" fill="#533429"/>
<path d="M325 48.5L325 50L324.5 51.5L323.037 49.4903L322.303 48.2815L317.662 41.9999L325 48.5Z" fill="#533429"/>
<path d="M4 0H7L4.375 4.15999L0 11L4 0Z" fill="#533429"/>
<path d="M228 0H232L229 7L228.5 17.5L227.5 35L233 59.5L249 62H232L226 31L227 18.5L227.5 6L228 0Z" fill="#533429"/>
<path d="M102 4L101 0.5L100 0H105L104.5 4L102 8.5L98.5 15L68.5 51L61.5 60L72 62H58L58.5 61.5L98 14.5L101 8L102 4Z" fill="#533429"/>
</svg>
