<svg width="82" height="82" viewBox="0 0 82 82" fill="none" xmlns="http://www.w3.org/2000/svg">
<g clip-path="url(#clip0_483_18297)">
<path d="M52.7387 1.33105H29.2616C13.836 1.33105 1.33105 13.836 1.33105 29.2616V52.7387C1.33105 68.1643 13.836 80.6693 29.2616 80.6693H52.7387C68.1643 80.6693 80.6693 68.1643 80.6693 52.7387V29.2616C80.6693 13.836 68.1643 1.33105 52.7387 1.33105Z" fill="url(#paint0_linear_483_18297)"/>
<path d="M52.7385 1.33091C60.1453 1.33223 67.2483 4.27549 72.4852 9.51335C77.7221 14.7512 80.6641 21.8547 80.6641 29.2615V52.7385C80.6646 60.1454 77.7227 67.2492 72.4857 72.4871C67.2487 77.7251 60.1455 80.6682 52.7385 80.6691H29.2582C21.8511 80.6682 14.7477 77.7251 9.51041 72.4872C4.27313 67.2493 1.33091 60.1456 1.33091 52.7385V29.2615C1.33091 21.8544 4.27313 14.7507 9.51041 9.51276C14.7477 4.27486 21.8511 1.33179 29.2582 1.33091H52.7385ZM52.7385 9.28809e-06H29.2582C25.4148 -0.00305423 21.6085 0.751751 18.0572 2.22123C14.5058 3.69072 11.279 5.84603 8.56151 8.56386C5.84399 11.2817 3.68904 14.5087 2.21996 18.0602C0.750883 21.6118 -0.00348844 25.4181 1.21272e-05 29.2615V52.7385C-0.00348844 56.5819 0.750883 60.3882 2.21996 63.9398C3.68904 67.4913 5.84399 70.7183 8.56151 73.4361C11.279 76.154 14.5058 78.3093 18.0572 79.7788C21.6085 81.2483 25.4148 82.0031 29.2582 82H52.7385C56.5818 82.0028 60.3879 81.2479 63.939 79.7783C67.4902 78.3087 70.7168 76.1534 73.4341 73.4356C76.1514 70.7177 78.3063 67.4908 79.7752 63.9394C81.2442 60.388 81.9985 56.5818 81.995 52.7385V29.2615C81.9985 25.4182 81.2442 21.612 79.7752 18.0606C78.3063 14.5092 76.1514 11.2823 73.4341 8.56445C70.7168 5.84664 67.4902 3.69129 63.939 2.22171C60.3879 0.75213 56.5818 -0.00283542 52.7385 9.28809e-06Z" fill="#503124"/>
<path d="M52.7387 1.33105H29.2583C21.8512 1.33194 14.7478 4.275 9.51055 9.51291C4.27327 14.7508 1.33105 21.8546 1.33105 29.2616V30.8071C1.33105 23.4001 4.27327 16.2963 9.51055 11.0584C14.7478 5.82051 21.8512 2.87744 29.2583 2.87656H52.7387C60.1455 2.87788 67.2484 5.82115 72.4854 11.059C77.7223 16.2969 80.6643 23.4004 80.6643 30.8071V29.2616C80.6643 21.8548 77.7223 14.7514 72.4854 9.5135C67.2484 4.27564 60.1455 1.33238 52.7387 1.33105Z" fill="#7D312C"/>
<path d="M52.7387 80.7754H29.2583C21.8512 80.7745 14.7478 77.8314 9.51055 72.5935C4.27327 67.3556 1.33105 60.2519 1.33105 52.8448V51.2993C1.33105 58.7064 4.27327 65.8101 9.51055 71.048C14.7478 76.2859 21.8512 79.229 29.2583 79.2299H52.7387C60.1455 79.2286 67.2484 76.2853 72.4854 71.0474C77.7223 65.8096 80.6643 58.7061 80.6643 51.2993V52.8448C80.6643 60.2516 77.7223 67.3551 72.4854 72.5929C67.2484 77.8308 60.1455 80.7741 52.7387 80.7754Z" fill="#7D312C"/>
<path d="M30.7513 79.26L27.3346 79.26L28.1888 75.8139L31.6055 70.6448L30.7513 79.26Z" fill="#7D312C"/>
<path d="M39.2917 2.74243H42.7083L41.8542 5.97927L35.875 16.2293L39.2917 2.74243Z" fill="#7D312C"/>
<path d="M57.5962 27.0915C54.0822 29.0937 49.878 32.4872 45.1044 37.1676C45.1042 37.1677 45.1041 37.1679 45.1039 37.168L45.0381 37.2314L44.9615 37.3052L45.0398 37.3771C46.2381 38.4773 47.4134 39.6145 48.5648 40.7876C51.2951 43.5766 53.1957 45.7393 54.2225 47.2179C55.6296 49.2536 55.9599 50.0352 56.0913 50.482C56.2076 50.8774 56.3859 51.7016 56.5623 54.2666C56.6905 56.1387 56.7384 57.3998 56.7133 58.1127C56.6751 59.2118 56.1 59.6328 55.6543 59.6842L55.6526 59.6844C55.6009 59.6912 55.5461 59.6931 55.486 59.6904C55.2534 59.679 54.8949 59.5824 54.5365 59.1735L54.5361 59.173C54.4136 59.0348 54.1873 58.7371 53.5422 57.6931L53.5411 57.6915C51.1343 53.9627 47.4643 49.7414 42.6427 45.14C41.8627 44.3938 41.0172 43.6256 40.021 42.7501L39.9456 42.684L39.8797 42.7595C37.0495 45.9972 34.456 49.3701 32.1571 52.7956C30.0046 55.9703 29.3 56.7246 28.9743 57.0067L28.9737 57.0072C28.7127 57.2372 28.3876 57.3758 27.9715 57.4252C27.2523 57.5068 26.2167 57.308 24.7934 56.8066C24.4419 56.6826 24.1588 56.3636 24.025 55.917C23.912 55.5369 23.9329 55.0103 24.062 54.3766C24.1906 53.7457 24.4239 53.0204 24.7241 52.2494C25.3243 50.7078 26.1878 48.994 27 47.5044C27.0212 47.4671 27.0441 47.4328 27.0698 47.3946C29.3698 44.2082 31.7769 41.1405 34.285 38.1996L34.3542 38.1184L34.2687 38.0545C31.9854 36.35 29.639 34.7755 27.2371 33.3361C24.2089 31.5045 23.4498 30.8418 23.1544 30.5209L23.1544 30.5209L23.1535 30.52C22.8221 30.1692 22.5875 29.6215 22.451 28.7954C22.3146 27.9701 22.2779 26.8781 22.3332 25.4499L22.3332 25.4497C22.3449 25.1298 22.4429 24.793 22.6538 24.5239C22.863 24.2569 23.1881 24.0502 23.6685 23.9945C24.1058 23.9441 24.7001 24.0209 25.3612 24.1731C26.0199 24.3249 26.7355 24.5493 27.4113 24.7878C28.7576 25.2629 29.9389 25.7911 30.1851 25.9025C30.2194 25.9207 30.2534 25.9397 30.2871 25.9597C33.3874 27.9884 36.4168 30.176 39.3673 32.5166L39.4377 32.5725L39.5007 32.5084C40.6724 31.3184 41.8681 30.1644 43.0867 29.0474C45.9852 26.3919 48.0818 24.6751 49.4983 23.7959C51.4375 22.595 52.1305 22.3876 52.509 22.332C52.5259 22.3304 52.5427 22.3285 52.5595 22.3261C52.8974 22.2891 53.5879 22.2749 55.6079 22.6482C57.1235 22.9314 58.1308 23.163 58.6988 23.3618C59.5759 23.6753 59.8092 24.5177 59.6416 25.2211L59.6416 25.2213C59.5445 25.6306 59.3278 25.9829 58.9958 26.258C58.8596 26.3681 58.5738 26.5652 57.5983 27.0903L57.5962 27.0915ZM55.4814 59.7903C55.5463 59.7932 55.6072 59.7913 55.6658 59.7835L54.4613 59.2394C54.8388 59.67 55.2234 59.7777 55.4814 59.7903Z" fill="#AF1305" stroke="#503124" stroke-width="0.2"/>
</g>
<defs>
<linearGradient id="paint0_linear_483_18297" x1="109.955" y1="-54.0457" x2="78.2734" y2="46.5907" gradientUnits="userSpaceOnUse">
<stop stop-color="#C52501"/>
<stop offset="1" stop-color="#F16100"/>
</linearGradient>
<clipPath id="clip0_483_18297">
<rect width="82" height="82" fill="white"/>
</clipPath>
</defs>
</svg>
