<svg width="345" height="25" viewBox="0 0 345 25" fill="none" xmlns="http://www.w3.org/2000/svg">
<path fill-rule="evenodd" clip-rule="evenodd" d="M3.73266 0.549428C38.9624 1.26367 75.3473 1.01642 110.808 0.109886L212.686 1.62079L325.739 0C330.89 0.619142 336.089 0.803012 341.274 0.549428C342.646 1.06012 343.909 1.80488 345 2.74708C344.975 8.5385 344.628 14.3246 343.96 20.0812C342.984 21.4905 341.716 22.6962 340.235 23.6249C310.578 23.6249 280.951 23.6249 251.294 22.5261L148.03 23.6249C113.754 23.8446 79.4767 23.4051 45.1999 24.2842C32.3208 23.6798 18.7775 23.6249 5.14763 23.6249C3.66039 22.7029 2.39167 21.496 1.42251 20.0812C0.407172 14.8081 -0.066713 9.45351 0.00754744 4.09314C0.832443 2.57267 2.13436 1.33416 3.73266 0.549428Z" fill="url(#paint0_radial_213_13695)"/>
<path fill-rule="evenodd" clip-rule="evenodd" d="M339.484 21.4268C340.345 20.8266 341.105 20.1039 341.736 19.2841C342.343 14.1471 342.574 8.95508 342.689 3.7631C342.104 3.37612 341.486 3.03613 340.841 2.74667C335.751 2.98907 330.65 2.80523 325.594 2.19727L212.714 3.81803L110.866 2.27967C75.4047 3.21368 39.8862 3.48838 4.42541 2.74667C3.59498 3.21654 2.89258 3.86591 2.37515 4.64216C2.33655 9.52184 2.76181 14.3948 3.64573 19.2017C4.29039 20.0344 5.04773 20.7826 5.89813 21.4268C19.0371 21.4268 32.1761 21.4268 45.2862 22.0861C79.5341 21.207 113.811 21.729 148.059 21.4268C182.307 21.1246 216.901 20.6851 251.323 20.328C280.69 21.3719 310.058 21.5367 339.426 21.4268H339.484Z" fill="url(#paint1_linear_213_13695)"/>
<path fill-rule="evenodd" clip-rule="evenodd" d="M1.42251 20.0805L3.58828 19.2014C2.70436 14.3945 2.2791 9.52155 2.3177 4.64187L0.00754744 4.09244C-0.066713 9.4528 0.407172 14.8074 1.42251 20.0805Z" fill="#5D392C"/>
<path fill-rule="evenodd" clip-rule="evenodd" d="M2.31821 4.64175C2.83564 3.8655 3.53803 3.21613 4.36846 2.74626L3.73317 0.548615C2.13487 1.33334 0.832952 2.57185 0.00805664 4.09233L2.31821 4.64175Z" fill="#5D392C"/>
<path fill-rule="evenodd" clip-rule="evenodd" d="M4.3685 2.74706C39.8293 3.48877 75.3479 3.21406 110.809 2.28006V0.109863C75.3479 1.0164 38.963 1.26365 3.73322 0.549406L4.3685 2.74706Z" fill="#5D392C"/>
<path fill-rule="evenodd" clip-rule="evenodd" d="M5.84089 21.4263C4.99049 20.7821 4.23316 20.0339 3.5885 19.2012L1.42273 20.0803C2.39188 21.4951 3.66061 22.702 5.14785 23.624L5.84089 21.4263Z" fill="#5D392C"/>
<path fill-rule="evenodd" clip-rule="evenodd" d="M45.2292 22.0861C32.1191 21.4817 18.9801 21.4268 5.84112 21.4268L5.14807 23.6244C18.778 23.6244 32.3212 23.6244 45.2003 24.2837V22.0861H45.2292Z" fill="#5D392C"/>
<path fill-rule="evenodd" clip-rule="evenodd" d="M148.001 21.427C113.753 21.7291 79.4764 21.2072 45.2285 22.0863V24.2839C79.5053 23.4049 113.782 23.8444 148.059 23.6246L251.323 22.5258V20.3281C216.901 20.6852 182.48 21.1248 148.059 21.427H148.001Z" fill="#5D392C"/>
<path fill-rule="evenodd" clip-rule="evenodd" d="M110.809 2.28008L212.657 3.81844L325.537 2.19767V0L212.484 1.62079L110.607 0.109886V2.28008H110.809Z" fill="#5D392C"/>
<path fill-rule="evenodd" clip-rule="evenodd" d="M339.485 21.427C310.117 21.427 280.749 21.427 251.381 20.3281V22.5258C281.038 23.5697 310.666 23.7345 340.322 23.6246L339.571 21.427H339.485Z" fill="#5D392C"/>
<path fill-rule="evenodd" clip-rule="evenodd" d="M325.596 2.19767C330.651 2.80563 335.753 2.98947 340.843 2.74708L341.276 0.549428C336.09 0.803012 330.891 0.619142 325.74 0V2.19767H325.596Z" fill="#5D392C"/>
<path fill-rule="evenodd" clip-rule="evenodd" d="M341.274 0.548828L340.841 2.74648C341.486 3.03594 342.104 3.37592 342.689 3.7629L345 2.74648C343.909 1.80428 342.646 1.05952 341.274 0.548828Z" fill="#5D392C"/>
<path fill-rule="evenodd" clip-rule="evenodd" d="M342.69 3.7635C342.69 8.95547 342.343 14.1475 341.737 19.2845L343.96 20.0811C344.628 14.3246 344.975 8.5385 345 2.74707L342.69 3.7635Z" fill="#5D392C"/>
<path fill-rule="evenodd" clip-rule="evenodd" d="M341.736 19.2847C341.105 20.1045 340.346 20.8271 339.484 21.4274L340.235 23.625C341.716 22.6963 342.983 21.4907 343.96 20.0813L341.736 19.2847Z" fill="#5D392C"/>
<path fill-rule="evenodd" clip-rule="evenodd" d="M4.36698 2.74626C39.1925 3.4605 74.1046 3.21325 108.93 2.33419C109.248 2.33419 110.518 2.3342 110.143 2.96603C109.569 3.49863 108.864 3.88587 108.093 4.09232C94.1163 9.11947 73.1228 18.0475 59.7239 20.3825C52.2781 21.5107 44.7351 21.9523 37.2 21.7011L45.1989 22.0033C53.1111 21.811 60.9945 21.6736 68.9068 21.5912H61.9475C59.7239 21.5912 59.4929 21.289 60.2148 21.0693C66.6255 19.0639 77.1944 16.1795 83.3163 13.9818C91.9794 10.8227 100.642 7.22399 109.45 4.09232C112.338 2.93854 110.056 3.07591 111.702 2.55396C113.025 2.41223 114.357 2.36632 115.687 2.41662L210.028 3.81761C211.608 3.79789 213.183 3.99213 214.706 4.3945C224.375 6.58205 233.848 9.4939 243.034 13.1028C245.558 14.2496 247.941 15.6592 250.138 17.3058C250.494 17.6272 250.752 18.0345 250.885 18.4844C251.017 18.9343 251.018 19.4099 250.889 19.8606C250.889 20.1078 249.965 20.2726 249.041 20.41H251.466H255.249C252.362 20.1078 252.159 20.1353 251.957 19.6408C251.589 18.6751 251.105 17.7533 250.513 16.8937C248.242 15.2503 245.781 13.8586 243.179 12.7456C234.528 9.40788 225.641 6.65399 216.583 4.50438C214.706 3.98244 216.843 3.81763 217.478 3.79016L325.68 2.25178C330.735 2.85974 335.837 3.0436 340.927 2.80121C341.571 3.09067 342.19 3.43063 342.775 3.81761C342.775 9.00959 342.428 14.2016 341.822 19.3386C341.545 19.7022 341.236 20.0422 340.898 20.355L341.938 19.7507C342.558 19.7027 343.182 19.7969 343.757 20.0254C343.222 19.7971 342.733 19.4809 342.313 19.0914C342.99 14.1008 343.251 9.06709 343.093 4.03739C343.54 3.569 344.093 3.20278 344.71 2.96603C344.146 3.17197 343.551 3.29246 342.948 3.32314C342.344 3.16223 341.802 2.83774 341.389 2.38914C341.316 1.88792 341.316 1.37947 341.389 0.878242C341.235 1.35933 341.001 1.81381 340.696 2.22432C335.884 2.66761 331.033 2.52915 326.257 1.81226C326.038 1.40479 325.928 0.951502 325.94 0.493652C325.887 0.933785 325.729 1.35659 325.478 1.72985C253.594 3.56124 182.21 3.56124 111.327 1.72985C111.104 1.36405 111.004 0.942553 111.038 0.521129C111.045 0.967906 110.892 1.40362 110.605 1.75731C75.2886 2.63637 40.001 2.96603 4.82901 2.38914C4.48414 1.98403 4.22877 1.51685 4.07822 1.0156C4.12813 1.54156 4.07924 2.07178 3.93383 2.58144C3.1961 3.00684 2.64291 3.66952 2.37448 4.44945C1.76256 4.50267 1.14559 4.44678 0.555237 4.28463C1.12048 4.46031 1.64845 4.73003 2.11459 5.08127C1.97928 8.08381 2.29037 11.0895 3.03865 14.0093C2.70229 10.9431 2.53842 7.86194 2.54774 4.77909C3.06517 4.00284 3.76756 3.35348 4.59799 2.88362L4.36698 2.74626Z" fill="#5D392C"/>
<path fill-rule="evenodd" clip-rule="evenodd" d="M109.929 2.63184C110.304 2.08242 109.062 2 108.745 2C73.8903 2.87906 39.007 3.12631 4.15262 2.41207C3.32219 2.88193 2.6198 3.5313 2.10237 4.30756C2.09305 7.39041 2.25692 10.4715 2.59327 13.5377C2.76653 15.3233 3.02643 17.0815 3.37295 18.8671C4.01761 19.6998 4.77494 20.448 5.62534 21.0922C16.0788 21.0922 26.5611 21.0922 37.0145 21.4493C44.5428 21.6715 52.076 21.2023 59.5096 20.0483C72.9084 17.7133 93.9019 8.78528 107.878 3.75813C108.65 3.55168 109.355 3.16444 109.929 2.63184Z" fill="url(#paint2_linear_213_13695)"/>
<path fill-rule="evenodd" clip-rule="evenodd" d="M216.498 4.45025C225.555 6.59985 234.442 9.35374 243.093 12.6915C245.696 13.8045 248.157 15.1962 250.428 16.8396C251.019 17.6991 251.504 18.621 251.872 19.5867C252.074 20.0811 252.42 20.0537 255.164 20.3558C283.261 21.3173 311.387 21.4547 339.484 21.3448C339.966 21.0137 340.412 20.6363 340.813 20.2185C341.151 19.9057 341.46 19.5656 341.737 19.202C342.343 14.065 342.574 8.87305 342.69 3.68107C342.104 3.29409 341.486 2.9541 340.841 2.66464C335.752 2.90704 330.65 2.7232 325.594 2.11523H324.179L217.335 3.62611C216.7 3.62611 214.447 3.81842 216.44 4.34036L216.498 4.45025Z" fill="#986050"/>
<defs>
<radialGradient id="paint0_radial_213_13695" cx="0" cy="0" r="1" gradientUnits="userSpaceOnUse" gradientTransform="translate(172.518 12.1421) scale(122.294 116.339)">
<stop stop-color="#4E5470"/>
<stop offset="1" stop-color="#252E4F"/>
</radialGradient>
<linearGradient id="paint1_linear_213_13695" x1="150.653" y1="-2.51" x2="150.653" y2="41.5" gradientUnits="userSpaceOnUse">
<stop stop-color="#B6795F"/>
<stop offset="1" stop-color="#4D2129"/>
</linearGradient>
<linearGradient id="paint2_linear_213_13695" x1="49.1141" y1="-2.61592" x2="49.1141" y2="39" gradientUnits="userSpaceOnUse">
<stop stop-color="#B6795F"/>
<stop offset="1" stop-color="#4D2129"/>
</linearGradient>
</defs>
</svg>
