<svg width="337" height="39" viewBox="0 0 337 39" fill="none" xmlns="http://www.w3.org/2000/svg">
<path fill-rule="evenodd" clip-rule="evenodd" d="M3.64611 0.882373C38.059 2.02943 73.6001 1.63236 108.239 0.176475L207.754 2.60296L318.185 0C323.217 0.994332 328.296 1.28962 333.361 0.882373C334.701 1.70254 335.934 2.89861 337 4.41176C336.975 13.7127 336.636 23.0051 335.984 32.25C335.03 34.5134 333.792 36.4497 332.345 37.9412C303.376 37.9412 274.436 37.9412 245.467 36.1765L144.598 37.9412C111.116 38.2941 77.6338 37.5882 44.1517 39C31.5713 38.0294 18.3421 37.9412 5.02826 37.9412C3.57551 36.4605 2.33621 34.5222 1.38953 32.25C0.397731 23.7815 -0.065166 15.1822 0.00737243 6.57352C0.81314 4.13166 2.08487 2.14264 3.64611 0.882373Z" fill="url(#paint0_radial_90_1610)"/>
<path fill-rule="evenodd" clip-rule="evenodd" d="M331.612 34.4111C332.453 33.4471 333.196 32.2865 333.812 30.97C334.404 22.72 334.63 14.3817 334.743 6.04351C334.171 5.42202 333.567 4.87601 332.937 4.41115C327.966 4.80043 322.982 4.50519 318.044 3.52881L207.782 6.13173L108.295 3.66116C73.6563 5.16116 38.9613 5.60232 4.32282 4.41115C3.51164 5.16574 2.82554 6.20863 2.3201 7.45527C2.2824 15.292 2.69779 23.1179 3.56122 30.8376C4.19093 32.1749 4.93071 33.3765 5.76139 34.4111C18.5957 34.4111 31.43 34.4111 44.2361 35.47C77.6899 34.0582 111.172 34.8964 144.626 34.4111C178.08 33.9259 211.872 33.22 245.495 32.6464C274.182 34.3229 302.868 34.5876 331.555 34.4111H331.612Z" fill="url(#paint1_linear_90_1610)"/>
<path fill-rule="evenodd" clip-rule="evenodd" d="M1.38953 32.2486L3.50507 30.8368C2.64165 23.1172 2.22625 15.2912 2.26395 7.45452L0.00737243 6.57214C-0.065166 15.1808 0.397731 23.7801 1.38953 32.2486Z" fill="#5D392C"/>
<path fill-rule="evenodd" clip-rule="evenodd" d="M2.26464 7.45493C2.77007 6.20828 3.45617 5.16539 4.26735 4.4108L3.64679 0.881409C2.08556 2.14167 0.813824 4.1307 0.00805664 6.57255L2.26464 7.45493Z" fill="#5D392C"/>
<path fill-rule="evenodd" clip-rule="evenodd" d="M4.26716 4.41156C38.9057 5.60273 73.6006 5.16156 108.239 3.66157V0.17627C73.6006 1.63215 38.0595 2.02923 3.64661 0.882168L4.26716 4.41156Z" fill="#5D392C"/>
<path fill-rule="evenodd" clip-rule="evenodd" d="M5.7056 34.4105C4.87492 33.3758 4.13515 32.1742 3.50544 30.8369L1.38989 32.2487C2.33657 34.5209 3.57588 36.4592 5.02863 37.9399L5.7056 34.4105Z" fill="#5D392C"/>
<path fill-rule="evenodd" clip-rule="evenodd" d="M44.1802 35.4699C31.3741 34.4994 18.5398 34.4111 5.70554 34.4111L5.02856 37.9405C18.3424 37.9405 31.5716 37.9405 44.152 38.9994V35.4699H44.1802Z" fill="#5D392C"/>
<path fill-rule="evenodd" clip-rule="evenodd" d="M144.569 34.4112C111.116 34.8965 77.6335 34.0582 44.1797 35.47V38.9994C77.6617 37.5877 111.144 38.2935 144.626 37.9406L245.495 36.1759V32.6465C211.872 33.22 178.249 33.9259 144.626 34.4112H144.569Z" fill="#5D392C"/>
<path fill-rule="evenodd" clip-rule="evenodd" d="M108.239 3.66177L207.726 6.13235L317.989 3.52942V0L207.557 2.60296L108.042 0.176475V3.66177H108.239Z" fill="#5D392C"/>
<path fill-rule="evenodd" clip-rule="evenodd" d="M331.613 34.4112C302.926 34.4112 274.239 34.4112 245.552 32.6465V36.1759C274.521 37.8524 303.462 38.1171 332.431 37.9406L331.697 34.4112H331.613Z" fill="#5D392C"/>
<path fill-rule="evenodd" clip-rule="evenodd" d="M318.046 3.52942C322.984 4.5058 327.968 4.80104 332.939 4.41176L333.362 0.882373C328.297 1.28962 323.219 0.994332 318.187 0V3.52942H318.046Z" fill="#5D392C"/>
<path fill-rule="evenodd" clip-rule="evenodd" d="M333.361 0.881348L332.938 4.41074C333.567 4.8756 334.171 5.42161 334.743 6.0431L337 4.41074C335.934 2.89759 334.701 1.70151 333.361 0.881348Z" fill="#5D392C"/>
<path fill-rule="evenodd" clip-rule="evenodd" d="M334.743 6.04399C334.743 14.3822 334.405 22.7205 333.812 30.9705L335.984 32.2499C336.637 23.005 336.976 13.7126 337 4.41162L334.743 6.04399Z" fill="#5D392C"/>
<path fill-rule="evenodd" clip-rule="evenodd" d="M333.812 30.9707C333.196 32.2873 332.454 33.4479 331.612 34.4119L332.345 37.9413C333.792 36.4498 335.03 34.5135 335.984 32.2501L333.812 30.9707Z" fill="#5D392C"/>
<path fill-rule="evenodd" clip-rule="evenodd" d="M4.26571 4.41061C38.2837 5.55767 72.3862 5.16061 106.404 3.74884C106.714 3.74884 107.956 3.74886 107.589 4.76356C107.029 5.61892 106.34 6.24081 105.586 6.57237C91.9339 14.6459 71.4272 28.9841 58.339 32.7341C51.0658 34.546 43.6977 35.2551 36.3374 34.8518L44.1508 35.3371C51.8796 35.0283 59.5801 34.8077 67.3089 34.6753H60.511C58.339 34.6753 58.1134 34.19 58.8186 33.8371C65.0806 30.6165 75.4044 25.9841 81.3844 22.4547C89.8465 17.3812 98.3087 11.6018 106.912 6.57237C109.733 4.71943 107.504 4.94003 109.112 4.10179C110.404 3.87417 111.705 3.80044 113.005 3.88122L205.158 6.1312C206.701 6.09952 208.24 6.41146 209.727 7.05766C219.173 10.5708 228.425 15.2472 237.399 21.043C239.864 22.8848 242.191 25.1486 244.338 27.793C244.686 28.3091 244.938 28.9634 245.067 29.6859C245.196 30.4084 245.198 31.1722 245.071 31.8959C245.071 32.293 244.168 32.5577 243.266 32.7782H245.635H249.33C246.51 32.293 246.312 32.3371 246.115 31.543C245.755 29.9921 245.282 28.5116 244.704 27.1312C242.486 24.4919 240.082 22.2569 237.54 20.4694C229.09 15.1091 220.408 10.6864 211.561 7.23414C209.727 6.3959 211.815 6.13122 212.435 6.0871L318.128 3.61649C323.066 4.59287 328.05 4.88815 333.021 4.49887C333.651 4.96373 334.255 5.50971 334.827 6.1312C334.827 14.4694 334.488 22.8077 333.896 31.0577C333.626 31.6415 333.324 32.1877 332.993 32.69L334.009 31.7194C334.615 31.6424 335.224 31.7936 335.786 32.1606C335.263 31.794 334.785 31.2862 334.375 30.6606C335.037 22.6459 335.291 14.5618 335.137 6.48415C335.574 5.73193 336.114 5.14378 336.716 4.76356C336.166 5.0943 335.585 5.28781 334.996 5.33708C334.406 5.07867 333.877 4.55753 333.473 3.8371C333.401 3.03213 333.401 2.21558 333.473 1.41061C333.322 2.18323 333.094 2.91313 332.796 3.5724C328.095 4.2843 323.357 4.06194 318.692 2.91063C318.477 2.25624 318.371 1.52827 318.382 0.792969C318.33 1.49981 318.175 2.17883 317.93 2.77828C247.713 5.71946 177.985 5.71946 108.745 2.77828C108.528 2.19081 108.43 1.5139 108.463 0.837096C108.47 1.55461 108.321 2.25436 108.04 2.82238C73.5427 4.23414 39.0735 4.76357 4.71703 3.8371C4.38015 3.18648 4.13071 2.43621 3.98364 1.63121C4.0324 2.4759 3.98464 3.32741 3.84261 4.14592C3.12198 4.8291 2.58162 5.89336 2.31941 7.14592C1.72169 7.23138 1.11902 7.14162 0.542358 6.88122C1.09449 7.16336 1.61022 7.59652 2.06555 8.1606C1.93338 12.9826 2.23726 17.8097 2.96818 22.4988C2.63963 17.5745 2.47956 12.6263 2.48866 7.67531C2.99409 6.42866 3.6802 5.38581 4.49137 4.63121L4.26571 4.41061Z" fill="#5D392C"/>
<path fill-rule="evenodd" clip-rule="evenodd" d="M107.38 4.22663C107.746 3.34428 106.533 3.21191 106.223 3.21191C72.177 4.62368 38.1026 5.02074 4.05642 3.87369C3.24525 4.62828 2.55915 5.67116 2.05371 6.91781C2.04461 11.8688 2.20468 16.8171 2.53324 21.7413C2.70248 24.609 2.95635 27.4325 3.29483 30.3001C3.92455 31.6375 4.66431 32.839 5.495 33.8737C15.706 33.8737 25.9453 33.8737 36.1563 34.4472C43.51 34.804 50.8685 34.0505 58.1297 32.1972C71.2179 28.4472 91.7246 14.109 105.377 6.03544C106.131 5.70388 106.819 5.08199 107.38 4.22663Z" fill="url(#paint2_linear_90_1610)"/>
<path fill-rule="evenodd" clip-rule="evenodd" d="M211.477 7.14696C220.325 10.5992 229.006 15.0219 237.456 20.3823C239.999 22.1697 242.402 24.4048 244.621 27.044C245.198 28.4245 245.672 29.9049 246.031 31.4558C246.229 32.2499 246.567 32.2058 249.247 32.6911C276.693 34.2352 304.166 34.4558 331.612 34.2793C332.083 33.7476 332.518 33.1415 332.91 32.4705C333.24 31.9681 333.542 31.422 333.812 30.8381C334.405 22.5881 334.63 14.2499 334.743 5.91168C334.171 5.29019 333.567 4.74418 332.938 4.27931C327.966 4.66859 322.983 4.37335 318.044 3.39697H316.662L212.295 5.82342C211.675 5.82342 209.475 6.13225 211.421 6.97049L211.477 7.14696Z" fill="#986050"/>
<defs>
<radialGradient id="paint0_radial_90_1610" cx="0" cy="0" r="1" gradientUnits="userSpaceOnUse" gradientTransform="translate(168.518 19.5) scale(119.458 186.838)">
<stop stop-color="#4E5470"/>
<stop offset="1" stop-color="#252E4F"/>
</radialGradient>
<linearGradient id="paint1_linear_90_1610" x1="147.16" y1="-4.03099" x2="147.16" y2="66.6484" gradientUnits="userSpaceOnUse">
<stop stop-color="#B6795F"/>
<stop offset="1" stop-color="#4D2129"/>
</linearGradient>
<linearGradient id="paint2_linear_90_1610" x1="47.9753" y1="-4.20118" x2="47.9753" y2="62.6333" gradientUnits="userSpaceOnUse">
<stop stop-color="#B6795F"/>
<stop offset="1" stop-color="#4D2129"/>
</linearGradient>
</defs>
</svg>
