<svg width="345" height="116" viewBox="0 0 345 116" fill="none" xmlns="http://www.w3.org/2000/svg">
<path fill-rule="evenodd" clip-rule="evenodd" d="M297.572 101.554L322.135 101.031C325.684 101.031 329.234 100.74 332.783 101.031C332.942 101.079 333.082 101.179 333.183 101.314C333.284 101.45 333.341 101.615 333.346 101.786C333.336 103.731 345.247 113.092 344.994 115.019C345.306 112.883 333.697 103.347 334.248 101.263C334.845 100.628 335.565 100.13 336.36 99.7991C337.156 99.4687 338.01 99.314 338.867 99.3448C340.801 100.171 343.176 101.684 344.994 102.755L340.67 99.1123C339.036 97.7753 339.205 97.6591 339.318 95.4501C339.318 91.9623 339.712 88.4745 339.938 84.9866C339.938 72.663 340.332 61.7345 341.346 49.2364C341.346 48.132 341.346 46.5043 341.966 45.923C342.585 45.3417 344.599 45.4743 344.994 45.3581C344.487 45.3581 342.022 44.8185 341.966 44.7023C341.061 42.3096 340.364 39.8391 339.881 37.3197C339.431 35.0526 338.923 32.7855 338.473 30.5185C338.473 29.1233 337.909 27.6119 338.473 27.205C338.991 26.7945 339.586 26.4977 340.219 26.3331L344.67 24.9961C342.83 25.4922 340.937 25.7461 339.036 25.7518C337.177 25.7518 337.515 24.7635 337.346 22.8452C337.177 20.9269 336.614 20.2875 336.501 19.0668C336.388 17.846 335.994 16.5672 337.346 15.3464L345 9L337.459 14.1257C335.205 15.7533 334.36 14.1257 335.374 11.3354L340 1.5L333.966 10.8704C332.557 13.4862 331.881 12.9049 328.952 12.8468C310.248 12.3236 291.6 10.9866 272.615 9.41712C264.84 9.41712 218.7 8.31264 216.672 6.62686C215.996 6.10369 216.672 3.54595 217.461 0C215.264 6.27808 216.391 6.56873 209.461 7.8476C202.362 8.77416 195.207 9.16274 188.053 9.01021C186.645 9.01021 186.419 9.0102 186.363 7.32442L187.5 0C187.5 1.68578 185.968 5.98743 185.799 7.67321C185.63 9.35899 184.842 8.4289 183.771 8.25451C178.138 7.49881 172.898 6.91751 167.377 6.62686C157.744 6.62686 149.687 7.67321 139.997 8.31265C136.11 8.31265 136.617 5.49921 134.983 0.5C135.48 2.8667 135.069 4.38127 134.983 6.80125C134.589 7.61507 133.575 7.49882 131.716 7.2663L118.082 5.9293C110.59 5.63865 103.153 5.52239 95.5476 5.40613C91.3988 5.8022 87.219 5.6851 83.0971 5.05734C83.0971 5.05734 80.007 0.639434 79.5 0C80.007 0.988217 80.9563 3.8366 80.7309 4.76669C80.5056 5.69678 78.6465 5.75491 77.069 5.81304C72.8438 6.10369 69.0128 6.45246 64.7876 6.56872C49.1822 8.60328 34.6473 9.94029 18.9856 10.9866C16.8448 10.9866 16.2814 11.8005 15.211 9.88217C14.1406 7.96387 10.8521 2.38335 9.5 0C10.6267 3.2553 13.2392 8.60328 14.0843 11.9748C14.0843 12.6143 12.1125 13.7769 11.3237 13.37C8.50689 11.9167 3.20418 8.62765 0.5 7C2.35912 8.56952 6.64777 12.1492 8.45055 13.6606C11.2111 15.9858 10.9294 15.0558 10.0843 18.6599C8.78858 24.4729 7.43649 29.8209 6.14074 35.4014C5.57737 37.7266 5.52103 37.7266 3.38022 38.5404C2.08447 39.0636 1.29575 39.703 0 40.2262L3.94359 39.4124C5.35202 39.4124 6.30975 38.7148 6.30975 40.4006C6.30975 42.0864 6.30975 45.1092 6.30975 47.4344L8.16887 72.4886C8.78858 79.4061 9.35195 86.3236 9.91532 93.2411C9.96576 93.8065 9.84784 94.3744 9.5773 94.8688C7.99758 97.1201 1.97947 100.87 0 102.755L10.535 96.322C10.935 96.3148 11.3319 96.3937 11.7006 96.5539C12.0692 96.7141 12.4014 96.9519 12.6758 97.2521C12.2251 98.7635 0.450696 114.547 0 116L13.5772 97.4847C13.9156 97.1981 14.3259 97.0167 14.7603 96.9615H26.7601C22.0278 96.9615 17.5772 96.4965 13.6336 96.4383C12.6258 96.2362 11.6907 95.7538 10.9294 95.0432C9.40829 76.4996 7.77451 57.7235 6.98579 39.1217C7.13664 38.9001 7.35465 38.7365 7.6055 38.6567C9.5773 37.901 32.8445 34.5295 48.5625 32.088C54.881 30.402 61.5113 30.402 67.8298 32.088C94.3082 37.901 149.631 60.4556 170.476 70.6284C173.214 71.9736 175.607 73.9649 177.462 76.4415C183.884 83.0102 190.363 89.2883 197.011 95.4501C199.039 99.3449 201.067 103.588 200.56 103.937C198.972 104.198 197.353 104.178 195.771 103.879C184.053 103.879 172.391 102.077 160.73 101.438C172.955 103.065 185.349 103.821 198.419 105.449C199.996 105.449 200.898 105.449 201.405 106.262C202.091 108.118 202.435 110.089 202.419 112.075C202.757 108.413 202.813 106.262 203.489 106.262C204.576 106.164 205.67 106.164 206.757 106.262C216.56 106.262 226.362 105.449 236.165 104.46C252.84 101.684 269.325 97.8002 285.516 92.8342C291.657 89.4045 297.797 86.0911 304.276 83.1846C310.755 80.2781 315.938 86.1493 321.177 89.4046C318.304 87.0793 315.544 85.161 312.896 83.1265C310.248 81.0919 307.769 80.7431 311.149 77.6622C318.509 70.9886 326.22 64.7397 334.248 58.9442C335.663 55.3198 337.559 51.9157 339.881 48.8295C340.15 49.102 340.344 49.4429 340.445 49.8177C339.431 65.3967 339.262 82.6033 338.36 98.4729C336.935 99.2215 335.467 99.8815 333.966 100.449L297.516 101.903L297.572 101.554ZM236.221 103.879C226.147 104.547 216.042 104.547 205.968 103.879C205.416 103.899 204.865 103.802 204.351 103.591C203.837 103.381 203.371 103.064 202.982 102.658C201.168 100.142 199.62 97.4333 198.363 94.5782C190.604 88.0419 183.334 80.9103 176.617 73.2443C176.201 72.3405 176.075 71.3236 176.258 70.3411C176.44 69.3586 176.921 68.4616 177.631 67.78C193.188 48.1676 212.881 32.4805 235.207 21.9152C242.008 18.7153 248.966 15.8825 256.052 13.4281C257.093 12.4617 258.226 11.6049 259.432 10.8704C261.526 10.1924 263.746 10.0331 265.911 10.4053C288.84 11.5098 312.051 12.5561 333.177 13.835C333.908 14.345 334.555 14.9731 335.093 15.6952C335.487 19.1249 335.712 22.4383 336.276 25.7518C337.628 31.0998 339.318 38.2498 340.332 42.5514C340.783 44.4697 340.783 45.1092 339.374 47.9576C337.857 51.3297 335.966 54.5092 333.74 57.4328C324.952 65.2223 315.825 72.5467 306.53 79.5224C299.81 84.1912 292.565 87.9977 284.953 90.8578C269.04 96.4242 252.752 100.776 236.221 103.879ZM173.236 70.2796C138.912 53.465 103.057 40.2045 66.196 30.6928C64.1679 30.1115 63.2101 29.5302 63.2101 29.2396C63.2101 28.9489 64.1115 28.0188 65.8016 26.74C68.8438 24.3566 71.9987 22.0314 75.1536 19.9387C77.0754 14.9366 79.9054 10.3592 83.4915 6.45248C101.204 5.9368 118.929 6.85028 136.505 9.18459C152.959 7.34699 169.569 7.58124 185.968 9.88217C196.616 9.12648 205.517 9.06833 215.433 7.44068C227.94 8.31264 241.291 9.06834 254.869 9.76591C256.446 9.76591 258.249 9.76589 255.939 11.4517C252.728 13.7188 243.207 17.2647 234.418 21.4501C225.63 25.6355 217.517 30.751 215.038 32.088C213.461 32.9018 213.574 32.088 213.517 30.8672C213.349 24.7993 213.48 18.7265 213.912 12.6724C212.923 18.8565 212.526 25.1261 212.729 31.3904C212.729 32.9018 213.123 33.3668 210.757 34.9945C197.436 43.7232 185.724 54.8241 176.166 67.78C174.645 69.9309 174.476 70.3959 172.842 70.2796H173.236ZM7.38015 36.564C8.6759 29.7627 10.9857 23.5428 12.6195 15.2302C12.9575 15.2302 15.3237 12.498 15.6617 12.2655C35.8867 11.5098 61.0693 8.71956 80.3366 6.45248C81.2943 7.15004 80.9563 8.08011 79.9986 9.5915L74.3649 19.0668C70.3491 22.6181 66.0735 25.8442 61.5764 28.7164C60.1679 29.0652 56.5624 29.0071 54.7596 29.2977C46.0837 30.8091 10.028 37.8429 8.16887 36.9128C7.8807 36.7834 7.64272 36.5583 7.49282 36.2733L7.38015 36.564Z" fill="#3C231C"/>
</svg>
