<svg width="48" height="48" viewBox="0 0 48 48" fill="none" xmlns="http://www.w3.org/2000/svg">
<path d="M30.8713 0.779297H17.1287C8.09902 0.779297 0.779053 8.09926 0.779053 17.1289V30.8716C0.779053 39.9012 8.09902 47.2212 17.1287 47.2212H30.8713C39.901 47.2212 47.2209 39.9012 47.2209 30.8716V17.1289C47.2209 8.09926 39.901 0.779297 30.8713 0.779297Z" fill="url(#paint0_radial_2002_4076)"/>
<path d="M30.8712 0.779068C35.2069 0.779843 39.3647 2.50273 42.4302 5.56879C45.4958 8.63485 47.2179 12.793 47.2179 17.1287V30.8713C47.2182 35.2071 45.4961 39.3654 42.4305 42.4315C39.365 45.4976 35.207 47.2204 30.8712 47.2209H17.1266C12.7908 47.2204 8.63267 45.4976 5.56695 42.4316C2.50122 39.3655 0.778948 35.2072 0.778948 30.8713V17.1287C0.778948 12.7928 2.50122 8.63453 5.56695 5.56844C8.63267 2.50236 12.7908 0.779585 17.1266 0.779068H30.8712ZM30.8712 5.43693e-06H17.1266C14.8768 -0.00178784 12.6488 0.440049 10.5699 1.30023C8.49108 2.16042 6.60224 3.42207 5.0115 5.01299C3.42075 6.60392 2.15932 8.4929 1.29937 10.5718C0.439419 12.6508 -0.00216408 14.8789 -0.000114971 17.1287V30.8713C-0.00216408 33.1211 0.439419 35.3492 1.29937 37.4282C2.15932 39.5071 3.42075 41.3961 5.0115 42.987C6.60224 44.5779 8.49108 45.8396 10.5699 46.6998C12.6488 47.56 14.8768 48.0018 17.1266 48H30.8712C33.1209 48.0017 35.3489 47.5597 37.4276 46.6995C39.5063 45.8393 41.395 44.5776 42.9857 42.9867C44.5763 41.3958 45.8377 39.5068 46.6976 37.4279C47.5575 35.3491 47.999 33.121 47.997 30.8713V17.1287C47.999 14.879 47.5575 12.6509 46.6976 10.5721C45.8377 8.49318 44.5763 6.60425 42.9857 5.01334C41.395 3.42243 39.5063 2.16076 37.4276 1.30051C35.3489 0.440271 33.1209 -0.00165976 30.8712 5.43693e-06Z" fill="#503124"/>
<path opacity="0.3" d="M31.0923 3.34598C32.9322 3.34611 34.7542 3.70865 36.454 4.41293C38.1538 5.1172 39.6983 6.1494 40.9992 7.45058C42.3001 8.75177 43.332 10.2965 44.0359 11.9964C44.7398 13.6964 45.102 15.5184 45.1018 17.3584V31.1011C45.102 32.941 44.7398 34.763 44.0359 36.463C43.332 38.163 42.3001 39.7077 40.9992 41.0089C39.6983 42.3101 38.1538 43.3423 36.454 44.0465C34.7542 44.7508 32.9322 45.1133 31.0923 45.1135H17.3477C15.5076 45.1135 13.6856 44.751 11.9856 44.0468C10.2857 43.3426 8.74109 42.3104 7.44007 41.0092C6.13905 39.708 5.10709 38.1633 4.40311 36.4632C3.69914 34.7632 3.33693 32.9411 3.33719 31.1011V17.3584C3.33693 15.5183 3.69914 13.6963 4.40311 11.9962C5.10709 10.2962 6.13905 8.75144 7.44007 7.45024C8.74109 6.14904 10.2857 5.11686 11.9856 4.41265C13.6856 3.70843 15.5076 3.34598 17.3477 3.34598H31.0923ZM31.0923 1.00879H17.3477C13.0118 1.00931 8.85372 2.73208 5.788 5.79817C2.72228 8.86426 1 13.0225 1 17.3584V31.1011C1 35.4369 2.72228 39.5952 5.788 42.6613C8.85372 45.7274 13.0118 47.4501 17.3477 47.4507H31.0923C35.428 47.4501 39.586 45.7273 42.6516 42.6612C45.7172 39.5951 47.4392 35.4368 47.439 31.1011V17.3584C47.439 13.0227 45.7168 8.86457 42.6513 5.79851C39.5858 2.73245 35.4279 1.00956 31.0923 1.00879Z" fill="#DC7E57"/>
<path opacity="0.5" d="M13.219 7.04482C13.2073 8.20075 11.6287 8.7461 11.4603 8.80355C10.4183 9.16387 8.93512 9.02364 8.62057 8.31664C8.19014 7.35352 9.82227 5.07379 11.4603 5.28414C12.287 5.39223 13.2316 6.14597 13.219 7.04482Z" fill="#C76144"/>
<path opacity="0.5" d="M39.6773 9.28775C40.2636 8.51334 39.8779 7.23367 38.8158 6.42952C37.7537 5.62536 36.4173 5.60125 35.831 6.37565C35.2447 7.15005 35.6304 8.42973 36.6926 9.23388C37.7547 10.038 39.091 10.0622 39.6773 9.28775Z" fill="#C76144"/>
<g opacity="0.5">
<path d="M38.1098 42.3491C39.1756 41.5498 39.5671 40.2719 38.9843 39.4948C38.4015 38.7177 37.0651 38.7358 35.9993 39.5351C34.9336 40.3344 34.542 41.6124 35.1248 42.3894C35.7076 43.1665 37.044 43.1484 38.1098 42.3491Z" fill="#C76144"/>
</g>
<g opacity="0.5">
<path d="M39.7643 38.2022C39.604 37.99 39.5103 37.7349 39.4949 37.4693C39.4796 37.2038 39.5433 36.9396 39.6781 36.7103C39.8129 36.481 40.0126 36.2968 40.2521 36.181C40.4916 36.0652 40.76 36.023 41.0235 36.0598C41.2869 36.0966 41.5336 36.2107 41.7322 36.3876C41.9308 36.5646 42.0725 36.7964 42.1393 37.0539C42.2061 37.3114 42.1951 37.5829 42.1076 37.8341C42.0201 38.0853 41.86 38.3049 41.6477 38.4652C41.3631 38.68 41.0048 38.773 40.6516 38.7237C40.2984 38.6744 39.9793 38.4868 39.7643 38.2022Z" fill="#C76144"/>
</g>
<path d="M30.8714 0.779297H17.1268C12.791 0.779813 8.6329 2.50258 5.56717 5.56867C2.50145 8.63476 0.779175 12.7931 0.779175 17.1289V18.0336C0.779175 13.6977 2.50145 9.53945 5.56717 6.47336C8.6329 3.40727 12.791 1.6845 17.1268 1.68398H30.8714C35.2071 1.68476 39.365 3.40764 42.4305 6.4737C45.496 9.53977 47.2181 13.6979 47.2181 18.0336V17.1289C47.2181 12.7932 45.496 8.63508 42.4305 5.56902C39.365 2.50296 35.2071 0.780072 30.8714 0.779297Z" fill="#7D312C"/>
<path d="M30.8714 47.2832H17.1268C12.791 47.2827 8.6329 45.5599 5.56717 42.4938C2.50145 39.4277 0.779175 35.2694 0.779175 30.9336V30.0289C0.779175 34.3648 2.50145 38.5231 5.56717 41.5891C8.6329 44.6552 12.791 46.378 17.1268 46.3785H30.8714C35.2071 46.3777 39.365 44.6549 42.4305 41.5888C45.496 38.5227 47.2181 34.3646 47.2181 30.0289V30.9336C47.2181 35.2693 45.496 39.4274 42.4305 42.4935C39.365 45.5595 35.2071 47.2824 30.8714 47.2832Z" fill="#7D312C"/>
<path opacity="0.5" d="M7.36863 11.3576C8.02102 11.3576 8.54989 10.8288 8.54989 10.1764C8.54989 9.52398 8.02102 8.99512 7.36863 8.99512C6.71624 8.99512 6.18738 9.52398 6.18738 10.1764C6.18738 10.8288 6.71624 11.3576 7.36863 11.3576Z" fill="#C76144"/>
<defs>
<radialGradient id="paint0_radial_2002_4076" cx="0" cy="0" r="1" gradientUnits="userSpaceOnUse" gradientTransform="translate(24 24.0002) scale(39 39)">
<stop stop-color="#F3C7AB"/>
<stop offset="0.26" stop-color="#FBBB94"/>
<stop offset="0.55" stop-color="#D68A5D"/>
<stop offset="0.845" stop-color="#DB946A"/>
<stop offset="1" stop-color="#DC8E66"/>
</radialGradient>
</defs>
</svg>
