<svg width="75" height="18" viewBox="0 0 75 18" fill="none" xmlns="http://www.w3.org/2000/svg">
<path opacity="0.75" fill-rule="evenodd" clip-rule="evenodd" d="M2.29449 3.91562C3.75762 2.36437 5.63342 0.825421 15.8396 1.37945H27.3962C32.6492 1.87191 40.5287 1.37945 45.593 1.07167C51.1004 1.44135 67.4992 0.0638285 71.9885 2.70846C72.4253 2.96579 73.217 3.29813 73.4842 4.06272C74.4572 6.77124 74.5432 11.7624 74.6734 15.2354C74.6734 13.7851 74.6734 12.8925 74.6734 12.1883C74.7836 9.72354 75.6755 7.12766 75.0001 4.49994C74.6673 3.35766 73.0501 1.48485 71.9995 0.499939C70.9489 -0.484976 54.1927 -0.0774043 45.593 -0.0774043C43.4464 -0.0774043 35.3912 -3.46899e-05 27.4995 -3.46899e-05C23.463 -4.36306e-05 18.4173 -0.352191 14.9995 -8.38637e-05C11.1407 -0.704298 7.13911 0.0817378 2.13457 0.394544C1.47444 1.2347 -0.998444 5.32405 -0.998444 5.32405C-0.998444 5.32405 -0.998914 5.32976 -0.999824 5.34097C-1.03007 5.71383 -0.0175853 12.5307 0.0894501 17.9999C0.822087 14.0287 0.744184 12.0141 1.30222 7.4367C1.63298 5.32406 1.65641 4.82666 2.29449 3.91562Z" fill="#3F1F1F"/>
</svg>
