<svg width="22" height="22" viewBox="0 0 22 22" fill="none" xmlns="http://www.w3.org/2000/svg">
<g clip-path="url(#clip0_321_13365)">
<path d="M14.1492 0.357178H7.8505C3.71192 0.357178 0.356934 3.71216 0.356934 7.85075V14.1495C0.356934 18.2881 3.71192 21.643 7.8505 21.643H14.1492C18.2878 21.643 21.6428 18.2881 21.6428 14.1495V7.85075C21.6428 3.71216 18.2878 0.357178 14.1492 0.357178Z" fill="url(#paint0_linear_321_13365)"/>
<path d="M14.1502 0.357073C16.1375 0.357428 18.0433 1.14708 19.4484 2.55236C20.8535 3.95764 21.6429 5.86345 21.6429 7.85064V14.1494C21.643 16.1366 20.8537 18.0425 19.4486 19.4478C18.0434 20.8531 16.1376 21.6427 14.1502 21.6429H7.85022C5.86284 21.6427 3.95694 20.8531 2.55173 19.4478C1.14652 18.0425 0.357095 16.1366 0.357095 14.1494V7.85064C0.357095 5.86338 1.14652 3.95749 2.55173 2.5522C3.95694 1.14691 5.86284 0.35731 7.85022 0.357073H14.1502ZM14.1502 2.49193e-06H7.85022C6.81901 -0.000819429 5.79776 0.201689 4.8449 0.595941C3.89204 0.990192 3.02627 1.56845 2.29713 2.29762C1.568 3.0268 0.989802 3.89258 0.595636 4.84543C0.201469 5.79828 -0.00093598 6.81949 3.25384e-06 7.85064V14.1494C-0.00093598 15.1805 0.201469 16.2017 0.595636 17.1546C0.989802 18.1074 1.568 18.9732 2.29713 19.7024C3.02627 20.4316 3.89204 21.0098 4.8449 21.4041C5.79776 21.7983 6.81901 22.0008 7.85022 22H14.1502C15.1814 22.0008 16.2026 21.7982 17.1554 21.4039C18.1082 21.0097 18.9739 20.4314 19.703 19.7022C20.4321 18.9731 21.0103 18.1073 21.4044 17.1545C21.7985 16.2017 22.0009 15.1805 22 14.1494V7.85064C22.0009 6.81953 21.7985 5.79835 21.4044 4.84553C21.0103 3.89271 20.4321 3.02695 19.703 2.29778C18.9739 1.56861 18.1082 0.990346 17.1554 0.596069C16.2026 0.201791 15.1814 -0.000760723 14.1502 2.49193e-06Z" fill="url(#paint1_linear_321_13365)"/>
<path opacity="0.3" d="M14.2508 1.53349C15.0941 1.53355 15.9291 1.69972 16.7082 2.02251C17.4873 2.3453 18.1952 2.81839 18.7915 3.41477C19.3877 4.01115 19.8607 4.71913 20.1833 5.49829C20.5059 6.27745 20.6719 7.11253 20.6718 7.95585V14.2546C20.6719 15.0979 20.5059 15.933 20.1833 16.7121C19.8607 17.4913 19.3877 18.1993 18.7915 18.7957C18.1952 19.392 17.4873 19.8651 16.7082 20.1879C15.9291 20.5107 15.0941 20.6769 14.2508 20.6769H7.95117C7.10782 20.6769 6.27272 20.5108 5.49358 20.188C4.71443 19.8653 4.00649 19.3922 3.4102 18.7958C2.8139 18.1994 2.34091 17.4914 2.01826 16.7122C1.6956 15.933 1.52959 15.0979 1.52971 14.2546V7.95585C1.52959 7.1125 1.6956 6.27738 2.01826 5.49819C2.34091 4.719 2.8139 4.01099 3.4102 3.41461C4.00649 2.81823 4.71443 2.34515 5.49358 2.02238C6.27272 1.69962 7.10782 1.53349 7.95117 1.53349H14.2508ZM14.2508 0.46228H7.95117C5.96391 0.462517 4.05812 1.25212 2.653 2.65741C1.24787 4.0627 0.458496 5.96859 0.458496 7.95585V14.2546C0.458496 16.2418 1.24787 18.1477 2.653 19.553C4.05812 20.9583 5.96391 21.7479 7.95117 21.7481H14.2508C16.238 21.7479 18.1438 20.9583 19.5488 19.553C20.9539 18.1477 21.7431 16.2418 21.743 14.2546V7.95585C21.743 5.96866 20.9537 4.06285 19.5487 2.65757C18.1436 1.25229 16.238 0.462635 14.2508 0.46228Z" fill="url(#paint2_linear_321_13365)"/>
<path d="M14.1492 0.357178H7.84961C5.86235 0.357414 3.95656 1.14702 2.55143 2.55231C1.14631 3.9576 0.356934 5.86348 0.356934 7.85075V8.2654C0.356934 6.27813 1.14631 4.37225 2.55143 2.96696C3.95656 1.56167 5.86235 0.772063 7.84961 0.771826H14.1492C16.1364 0.772181 18.0421 1.56184 19.4471 2.96711C20.8521 4.37239 21.6415 6.27821 21.6415 8.2654V7.85075C21.6415 5.86356 20.8521 3.95775 19.4471 2.55247C18.0421 1.14719 16.1364 0.357533 14.1492 0.357178Z" fill="#673737"/>
<path d="M14.2559 22H7.74454C5.69048 21.9998 3.72062 21.201 2.26827 19.7794C0.815911 18.3578 -1.45745e-08 16.4298 0 14.4195V14C-1.45745e-08 16.0103 0.815911 17.9383 2.26827 19.3599C3.72062 20.7815 5.69048 21.5803 7.74454 21.5805H14.2559C16.3099 21.5802 18.2796 20.7814 19.7319 19.3598C21.1842 17.9382 22 16.0102 22 14V14.4195C22 16.4297 21.1842 18.3576 19.7319 19.7792C18.2796 21.2008 16.3099 21.9996 14.2559 22Z" fill="#A76C58"/>
<path d="M8.25033 22.2649L7.33366 22.2649L7.56283 21.3403L8.47949 19.9535L8.25033 22.2649Z" fill="#A76C58"/>
<path d="M10.5417 0.735718H11.4583L11.2292 1.60414L9.625 4.35416L10.5417 0.735718Z" fill="#673737"/>
</g>
<defs>
<linearGradient id="paint0_linear_321_13365" x1="14.2247" y1="-8.91876" x2="14.2247" y2="17.2633" gradientUnits="userSpaceOnUse">
<stop stop-color="#B6795F"/>
<stop offset="1" stop-color="#4D2129"/>
</linearGradient>
<linearGradient id="paint1_linear_321_13365" x1="7.50045" y1="24" x2="18.9999" y2="-6.00047" gradientUnits="userSpaceOnUse">
<stop stop-color="#B6795F"/>
<stop offset="1" stop-color="#4D2129"/>
</linearGradient>
<linearGradient id="paint2_linear_321_13365" x1="14.3254" y1="-8.81366" x2="14.3254" y2="17.3684" gradientUnits="userSpaceOnUse">
<stop stop-color="#B6795F"/>
<stop offset="1" stop-color="#4D2129"/>
</linearGradient>
<clipPath id="clip0_321_13365">
<rect width="22" height="22" fill="white"/>
</clipPath>
</defs>
</svg>
