<svg width="22" height="22" viewBox="0 0 22 22" fill="none" xmlns="http://www.w3.org/2000/svg">
<g clip-path="url(#clip0_321_13364)">
<path d="M14.1492 0.357178H7.8505C3.71192 0.357178 0.356934 3.71216 0.356934 7.85075V14.1495C0.356934 18.2881 3.71192 21.643 7.8505 21.643H14.1492C18.2878 21.643 21.6428 18.2881 21.6428 14.1495V7.85075C21.6428 3.71216 18.2878 0.357178 14.1492 0.357178Z" fill="url(#paint0_radial_321_13364)"/>
<path d="M14.1494 0.357073C16.1365 0.357428 18.0422 1.14708 19.4473 2.55236C20.8523 3.95764 21.6416 5.86345 21.6416 7.85064V14.1494C21.6417 16.1366 20.8524 18.0425 19.4474 19.4478C18.0423 20.8531 16.1366 21.6427 14.1494 21.6429H7.84975C5.86249 21.6427 3.9567 20.8531 2.55157 19.4478C1.14645 18.0425 0.357074 16.1366 0.357074 14.1494V7.85064C0.357074 5.86338 1.14645 3.95749 2.55157 2.5522C3.9567 1.14691 5.86249 0.35731 7.84975 0.357073H14.1494ZM14.1494 2.49193e-06H7.84975C6.8186 -0.000819429 5.79741 0.201689 4.8446 0.595941C3.8918 0.990192 3.02608 1.56845 2.29699 2.29762C1.5679 3.0268 0.989742 3.89258 0.595599 4.84543C0.201456 5.79828 -0.000935923 6.81949 3.25365e-06 7.85064V14.1494C-0.000935923 15.1805 0.201456 16.2017 0.595599 17.1546C0.989742 18.1074 1.5679 18.9732 2.29699 19.7024C3.02608 20.4316 3.8918 21.0098 4.8446 21.4041C5.79741 21.7983 6.8186 22.0008 7.84975 22H14.1494C15.1805 22.0008 16.2016 21.7982 17.1544 21.4039C18.1071 21.0097 18.9728 20.4314 19.7018 19.7022C20.4309 18.9731 21.009 18.1073 21.4031 17.1545C21.7972 16.2017 21.9996 15.1805 21.9987 14.1494V7.85064C21.9996 6.81953 21.7972 5.79835 21.4031 4.84553C21.009 3.89271 20.4309 3.02695 19.7018 2.29778C18.9728 1.56861 18.1071 0.990346 17.1544 0.596069C16.2016 0.201791 15.1805 -0.000760723 14.1494 2.49193e-06Z" fill="#503124"/>
<path opacity="0.3" d="M14.2508 1.53349C15.0941 1.53355 15.9291 1.69972 16.7082 2.02251C17.4873 2.3453 18.1952 2.81839 18.7915 3.41477C19.3877 4.01115 19.8607 4.71913 20.1833 5.49829C20.5059 6.27745 20.6719 7.11253 20.6718 7.95585V14.2546C20.6719 15.0979 20.5059 15.933 20.1833 16.7121C19.8607 17.4913 19.3877 18.1993 18.7915 18.7957C18.1952 19.392 17.4873 19.8651 16.7082 20.1879C15.9291 20.5107 15.0941 20.6769 14.2508 20.6769H7.95117C7.10782 20.6769 6.27272 20.5108 5.49358 20.188C4.71443 19.8653 4.00649 19.3922 3.4102 18.7958C2.8139 18.1994 2.34091 17.4914 2.01826 16.7122C1.6956 15.933 1.52959 15.0979 1.52971 14.2546V7.95585C1.52959 7.1125 1.6956 6.27738 2.01826 5.49819C2.34091 4.719 2.8139 4.01099 3.4102 3.41461C4.00649 2.81823 4.71443 2.34515 5.49358 2.02238C6.27272 1.69962 7.10782 1.53349 7.95117 1.53349H14.2508ZM14.2508 0.46228H7.95117C5.96391 0.462517 4.05812 1.25212 2.653 2.65741C1.24787 4.0627 0.458496 5.96859 0.458496 7.95585V14.2546C0.458496 16.2418 1.24787 18.1477 2.653 19.553C4.05812 20.9583 5.96391 21.7479 7.95117 21.7481H14.2508C16.238 21.7479 18.1438 20.9583 19.5488 19.553C20.9539 18.1477 21.7431 16.2418 21.743 14.2546V7.95585C21.743 5.96866 20.9537 4.06285 19.5487 2.65757C18.1436 1.25229 16.238 0.462635 14.2508 0.46228Z" fill="#DC7E57"/>
<path opacity="0.5" d="M6.0586 3.22887C6.05324 3.75868 5.32973 4.00863 5.25251 4.03496C4.77493 4.20011 4.09515 4.13583 3.95099 3.81179C3.75371 3.37036 4.50177 2.32549 5.25251 2.4219C5.63145 2.47144 6.0644 2.8169 6.0586 3.22887Z" fill="#C76144"/>
<path opacity="0.5" d="M18.1855 4.25699C18.4542 3.90205 18.2774 3.31553 17.7906 2.94696C17.3038 2.57839 16.6913 2.56734 16.4226 2.92227C16.1539 3.27721 16.3307 3.86373 16.8175 4.2323C17.3043 4.60087 17.9168 4.61192 18.1855 4.25699Z" fill="#C76144"/>
<g opacity="0.5">
<path d="M17.467 19.41C17.9555 19.0436 18.1349 18.4579 17.8678 18.1017C17.6007 17.7456 16.9882 17.7539 16.4997 18.1202C16.0112 18.4866 15.8318 19.0723 16.0989 19.4284C16.366 19.7846 16.9785 19.7763 17.467 19.41Z" fill="#C76144"/>
</g>
<g opacity="0.5">
<path d="M18.2256 17.5095C18.1521 17.4122 18.1091 17.2953 18.1021 17.1736C18.0951 17.0519 18.1243 16.9308 18.1861 16.8257C18.2478 16.7206 18.3394 16.6361 18.4492 16.5831C18.5589 16.53 18.6819 16.5107 18.8027 16.5275C18.9234 16.5444 19.0365 16.5967 19.1275 16.6778C19.2185 16.7589 19.2835 16.8652 19.3141 16.9832C19.3447 17.1012 19.3397 17.2256 19.2996 17.3407C19.2595 17.4559 19.1861 17.5565 19.0888 17.63C18.9583 17.7285 18.7941 17.7711 18.6322 17.7485C18.4704 17.7259 18.3241 17.6399 18.2256 17.5095Z" fill="#C76144"/>
</g>
<path d="M14.1492 0.357178H7.84961C5.86235 0.357414 3.95656 1.14702 2.55143 2.55231C1.14631 3.9576 0.356934 5.86348 0.356934 7.85075V8.2654C0.356934 6.27813 1.14631 4.37225 2.55143 2.96696C3.95656 1.56167 5.86235 0.772063 7.84961 0.771826H14.1492C16.1364 0.772181 18.0421 1.56184 19.4471 2.96711C20.8521 4.37239 21.6415 6.27821 21.6415 8.2654V7.85075C21.6415 5.86356 20.8521 3.95775 19.4471 2.55247C18.0421 1.14719 16.1364 0.357533 14.1492 0.357178Z" fill="#7D312C"/>
<path d="M14.1492 21.6714H7.84961C5.86235 21.6711 3.95656 20.8815 2.55143 19.4763C1.14631 18.071 0.356934 16.1651 0.356934 14.1778V13.7632C0.356934 15.7504 1.14631 17.6563 2.55143 19.0616C3.95656 20.4669 5.86235 21.2565 7.84961 21.2567H14.1492C16.1364 21.2564 18.0421 20.4667 19.4471 19.0614C20.8521 17.6562 21.6415 15.7504 21.6415 13.7632V14.1778C21.6415 16.165 20.8521 18.0708 19.4471 19.4761C18.0421 20.8814 16.1364 21.671 14.1492 21.6714Z" fill="#7D312C"/>
<path opacity="0.5" d="M3.37735 5.20574C3.67636 5.20574 3.91875 4.96334 3.91875 4.66433C3.91875 4.36532 3.67636 4.12292 3.37735 4.12292C3.07833 4.12292 2.83594 4.36532 2.83594 4.66433C2.83594 4.96334 3.07833 5.20574 3.37735 5.20574Z" fill="#C76144"/>
<path d="M8.25033 21.2649L7.33366 21.2649L7.56283 20.3403L8.47949 18.9535L8.25033 21.2649Z" fill="#7D312C"/>
<path d="M10.5417 0.735718H11.4583L11.2292 1.60414L9.625 4.35416L10.5417 0.735718Z" fill="#7D312C"/>
</g>
<defs>
<radialGradient id="paint0_radial_321_13364" cx="0" cy="0" r="1" gradientUnits="userSpaceOnUse" gradientTransform="translate(10.9999 11.0001) scale(17.875 17.875)">
<stop stop-color="#F3C7AB"/>
<stop offset="0.26" stop-color="#FBBB94"/>
<stop offset="0.55" stop-color="#D68A5D"/>
<stop offset="0.845" stop-color="#DB946A"/>
<stop offset="1" stop-color="#DC8E66"/>
</radialGradient>
<clipPath id="clip0_321_13364">
<rect width="22" height="22" fill="white"/>
</clipPath>
</defs>
</svg>
