<svg width="345" height="26" viewBox="0 0 345 26" fill="none" xmlns="http://www.w3.org/2000/svg">
<path fill-rule="evenodd" clip-rule="evenodd" d="M10.2397 5.2C18.9084 4.68 44.4738 4.56001 71.5 3.00001L127.5 2.50001C155.469 1.57609 183.496 0.538047 210.5 1.00001C235.973 1.54596 311.818 -0.488409 332.582 3.41725C334.603 3.79727 338.264 4.28808 339.5 5.41725C344 9.41725 344.398 16.7883 345 21.9172C345 19.7754 345 18.4572 345 17.4172C345.51 13.7772 345.127 8.88068 342.003 5.00001C340.464 3.31307 338.191 1.04 332.582 5.36442e-07C291.278 5.36442e-07 250.994 5.36442e-07 211.219 5.36442e-07C201.291 5.36442e-07 164.5 5.36442e-07 128 5.36442e-07C108.03 0.545952 85.8078 -0.519998 70 2.38419e-06C52.1525 -1.04 32.6465 -0.461953 9.5 6.13928e-06C6.44684 1.24077 -4.99055 7.28 -4.99055 7.28C-4.99055 7.28 -4.99272 7.28842 -4.99693 7.30498C-5.13683 7.85563 -0.453965 17.9229 0.0410862 26C3.42961 20.1352 3.0693 17.16 5.65029 10.4C7.18007 7.28 6.67016 7.8 10.2397 5.2Z" fill="#503124"/>
</svg>
