<svg width="168" height="22" viewBox="0 0 168 22" fill="none" xmlns="http://www.w3.org/2000/svg">
<path opacity="0.75" fill-rule="evenodd" clip-rule="evenodd" d="M5.39816 4.00337C9.60646 3.55345 22.0172 3.44963 35.1372 2.09989L62.3227 1.66728C75.9002 0.86788 89.3907 0.600304 102.5 1C114.866 1.47237 151.801 -0.379259 161.881 3C162.861 3.32881 163.9 4.02302 164.5 5C166.685 8.46089 167.708 14.5622 168 18.9999C168 17.1467 168 15.3998 168 14.5C168.248 11.3506 168.5 8.5 166.5 4C165.753 2.54042 164.223 0.899833 161.5 1.60933e-06C141.449 1.60933e-06 122.309 1.60933e-06 103 1.60933e-06C98.1804 1.60933e-06 80.2845 -0.495786 62.5654 -0.495786C52.8711 -0.0234162 42.083 -0.9457 34.4091 -0.495784C25.7449 -1.39562 18.7368 -0.399804 7.5002 -0.000106812C4.0002 0.499893 1.0002 4.99988 1.0002 4.99988L0.000198364 7.49988C0.000198364 7.49988 0.206895 15.0115 0.44722 22C2.09219 16.9256 1.91728 14.3514 3.17023 8.50253C3.91287 5.80303 3.66533 6.25295 5.39816 4.00337Z" fill="#503124"/>
</svg>
