<svg width="179" height="19" viewBox="0 0 179 19" fill="none" xmlns="http://www.w3.org/2000/svg">
<path opacity="0.75" fill-rule="evenodd" clip-rule="evenodd" d="M6.48629 2.64947C10.9091 2.30491 25.2398 4.10011 39.0285 3.06645L67.5994 2.73514C81.869 2.12295 96.1682 1.43514 109.946 1.74124C122.942 2.10299 161.638 0.754995 172.232 3.34291C173.262 3.59472 175.131 3.91992 175.761 4.66812C178.057 7.31855 178.693 12.6014 179 15.9999C179 14.5807 179 13.189 179 12.4999C179.26 10.088 179.39 6.50007 177.89 3.80645C177.105 2.68867 175.761 0.500081 172.39 0.000160336C151.317 0.000160336 130.683 0.000171304 110.39 0.000171304C105.325 0.000171304 86.2216 0.000171304 67.5994 0.000171304C58.8878 0.000171304 46.4554 -1.34447 38.3903 -0.999918C29.2846 -1.68903 11.3903 3.016e-05 7.39029 0.000171304C4.89503 -0.488914 2.4938 1.67116 2.4938 1.67116L0.890289 3.50017L5.1938e-05 5.91894C5.1938e-05 5.91894 -0.249148 12.9544 0.00342524 18.3063C1.73224 14.4202 0.573482 9.78545 1.89029 5.30622C2.67078 3.23889 3.49192 3.13874 6.48629 2.64947Z" fill="#7D312C"/>
</svg>
