<svg width="277" height="16" viewBox="0 0 277 16" fill="none" xmlns="http://www.w3.org/2000/svg">
<path opacity="0.75" fill-rule="evenodd" clip-rule="evenodd" d="M10.2072 2.31217C17.0514 2.01147 38.6789 2.21115 60.0167 1.30905H104.779C126.861 0.77477 148.989 1.25239 170.309 1.51953C190.42 1.83524 250.302 0.658817 266.696 2.91735C268.291 3.13711 271.182 3.42094 272.157 4.0739C275.71 6.387 276.525 10.8287 277 13.7947C277 12.5561 277 11.3415 277 10.7401C277.403 8.63519 277.821 5.35067 275.5 2.99988C274.548 1.67786 273.5 -0.500122 266.941 3.60608e-05C234.331 3.60608e-05 202.4 4.55379e-05 170.997 4.55379e-05C163.159 4.55379e-05 133.596 4.55379e-05 104.779 4.55379e-05C91.2978 4.55379e-05 72.4972 -0.73711 60.0167 -0.436407C45.9257 -1.03781 17.7961 -7.76035e-05 11.6061 4.55379e-05C5.5 -0.500122 4 0.999878 4 0.999878L1.5 2.99988L0.169856 5.16553C0.169856 5.16553 -0.215777 11.3056 0.175076 15.9764C2.85039 12.5849 1.05723 8.53992 3.09497 4.63079C4.30277 2.82658 5.57347 2.73917 10.2072 2.31217Z" fill="#533429"/>
</svg>
